<svg width="487" height="421" viewBox="0 0 487 421" fill="none" xmlns="http://www.w3.org/2000/svg">
<g clip-path="url(#clip0)">
<path d="M194.207 360.138C194.207 360.138 171.171 361.647 151.666 349.976C128.955 336.38 101.795 306.177 93.9013 302.436C93.9013 302.436 87.0773 297.603 79.5463 305.14C79.5463 305.14 61.3595 360.917 144.88 404.326C144.925 404.436 181.092 376.995 194.207 360.138Z" fill="#D88484"/>
<path d="M79.5922 305.25C77.0521 302.311 75.4917 298.327 75.1884 294.218C74.5468 287.22 84.8035 299.726 84.8035 299.726C84.8035 299.726 85.1832 291.26 90.0169 289C94.8506 286.74 94.0367 302.499 94.0367 302.499C94.0367 302.499 88.2275 300.869 79.5922 305.25Z" fill="#CC6666"/>
<path d="M338.814 270.4C338.814 270.4 338.209 268.3 336.9 264.683C343.849 263.166 357.645 258.382 358.552 243.564C359.257 232.713 361.371 221.979 364.896 211.944C364.896 211.944 354.725 210.077 346.769 204.943C338.814 199.81 320.183 196.659 307.998 217.778C288.965 198.409 259.76 183.941 217.062 197.009C212.731 198.293 208.401 199.81 204.171 201.676L203.97 201.793C195.209 205.527 187.052 210.894 179.801 217.661C167.616 196.659 149.086 199.693 141.03 204.827C132.973 209.961 122.903 211.828 122.903 211.828C126.427 221.979 128.542 232.596 129.247 243.564C130.153 259.083 144.957 263.633 151.704 264.916C125.42 317.422 95.8132 405.281 138.814 481.123C156.538 515.543 209.609 563.031 209.609 563.031C209.609 563.031 199.942 569.799 204.977 570.966C210.012 572.132 212.328 568.515 212.328 568.515C212.328 568.515 209.005 573.999 212.328 573.999C215.652 573.999 224.917 563.031 224.917 563.031V530.361C237.303 531.878 249.791 531.878 262.177 530.361V563.031C262.177 563.031 271.543 573.999 274.866 573.999C278.189 573.999 274.866 568.515 274.866 568.515C274.866 568.515 277.283 572.132 282.218 570.966C287.152 569.799 277.585 563.031 277.585 563.031C277.787 562.798 330.556 515.66 348.381 481.239C349.085 480.423 349.69 479.723 350.395 478.906C350.294 478.789 403.667 403.531 338.814 270.4Z" fill="#EBA5A5"/>
<path d="M178.19 218.362C178.19 218.362 43.3459 402.015 170.536 522.661H242.842V192.926C242.842 192.926 203.97 192.926 178.19 218.362Z" fill="#D88484"/>
<path d="M202.862 201.911C202.862 201.911 129.045 272.852 147.071 393.964C165.098 515.077 289.468 553.115 349.286 478.79C349.286 478.79 402.66 403.532 337.806 270.518C337.806 270.635 306.386 159.323 202.862 201.911Z" fill="#EBA5A5"/>
<path d="M178.894 218.129L153.818 265.617C153.818 265.617 129.448 263.867 128.239 243.798C127.534 232.947 125.42 222.213 121.895 212.178C121.895 212.178 132.066 210.311 140.022 205.178C147.978 200.044 166.709 196.777 178.894 218.129Z" fill="#D88484"/>
<path d="M161.372 239.948C160.667 239.948 160.062 239.481 159.76 238.664C154.423 222.913 142.036 226.53 141.533 226.763C140.626 226.997 139.72 226.296 139.418 225.246C139.217 224.196 139.72 223.263 140.526 222.913C140.727 222.913 156.437 218.012 162.983 237.264C163.285 238.314 162.882 239.481 161.976 239.831C161.774 239.831 161.573 239.948 161.372 239.948Z" fill="#CC6666"/>
<path d="M160.264 237.264C160.062 237.264 159.861 237.264 159.559 237.148C147.776 231.547 142.238 236.564 142.036 236.798C141.331 237.498 140.224 237.381 139.619 236.564C139.015 235.748 139.116 234.464 139.821 233.764C140.123 233.414 146.971 226.88 160.868 233.414C161.774 233.881 162.177 235.047 161.774 235.981C161.674 236.798 160.969 237.264 160.264 237.264Z" fill="#CC6666"/>
<path d="M306.89 218.129L331.966 265.617C331.966 265.617 356.336 263.867 357.545 243.798C358.25 232.947 360.364 222.213 363.889 212.178C363.889 212.178 353.718 210.311 345.762 205.178C337.806 200.044 319.075 196.777 306.89 218.129Z" fill="#EBA5A5"/>
<path d="M324.413 239.948C324.211 239.948 324.01 239.948 323.808 239.831C322.902 239.481 322.499 238.314 322.801 237.264C329.246 218.012 345.057 222.913 345.258 222.913C346.165 223.146 346.769 224.196 346.568 225.363C346.366 226.413 345.46 227.113 344.453 226.88C344.352 226.88 344.352 226.88 344.251 226.88C343.748 226.763 331.361 223.029 326.024 238.781C325.722 239.481 325.118 239.948 324.413 239.948Z" fill="#CC6666"/>
<path d="M325.419 237.264C324.513 237.264 323.708 236.331 323.708 235.281C323.708 234.464 324.11 233.764 324.815 233.414C338.713 226.88 345.56 233.414 345.863 233.764C346.567 234.581 346.567 235.748 345.963 236.564C345.359 237.264 344.352 237.381 343.647 236.798C343.345 236.564 337.907 231.547 326.124 237.148C325.822 237.148 325.621 237.264 325.419 237.264Z" fill="#CC6666"/>
<path d="M240.988 305.266C240.988 309.35 239.377 312.617 237.262 312.617C235.147 312.617 233.536 309.35 233.536 305.266C233.536 301.182 235.147 297.915 237.262 297.915C239.377 297.915 240.988 301.182 240.988 305.266Z" fill="#454F55"/>
<path d="M255.69 305.266C255.69 309.35 254.079 312.617 252.064 312.617C250.05 312.617 248.338 309.35 248.338 305.266C248.338 301.182 249.95 297.915 251.964 297.915C253.978 297.915 255.69 301.182 255.69 305.266Z" fill="#454F55"/>
<path d="M244.613 327.668C227.795 327.668 214.099 317.634 214.099 305.149C214.099 292.665 227.795 282.747 244.613 282.747C261.43 282.747 275.126 292.781 275.126 305.266C275.126 317.751 261.531 327.668 244.613 327.668ZM244.613 286.714C229.708 286.714 217.523 294.998 217.523 305.149C217.523 315.3 229.708 323.585 244.613 323.585C259.517 323.585 271.803 315.3 271.803 305.149C271.803 294.998 259.618 286.714 244.613 286.714Z" fill="#CC6666"/>
<path d="M291.583 265.384C291.583 275.768 287.051 284.169 281.411 284.169C275.772 284.169 271.24 275.768 271.24 265.384C271.24 255 275.772 246.599 281.411 246.599C287.051 246.599 291.583 255 291.583 265.384Z" fill="#454F55"/>
<path d="M287.554 258.617C287.554 261.3 285.742 263.517 283.425 263.517C281.109 263.517 279.196 261.417 279.196 258.733C279.196 256.05 281.008 253.833 283.325 253.833C283.325 253.833 283.325 253.833 283.425 253.833C285.641 253.833 287.554 255.933 287.554 258.617Z" fill="white"/>
<path d="M214.544 265.384C214.544 275.768 210.012 284.169 204.372 284.169C198.733 284.169 194.201 275.768 194.201 265.384C194.201 255 198.733 246.599 204.372 246.599C210.012 246.599 214.544 255 214.544 265.384Z" fill="#454F55"/>
<path d="M209.106 258.617C209.106 261.3 207.293 263.517 204.977 263.517C202.661 263.517 200.748 261.417 200.748 258.733C200.748 256.05 202.56 253.833 204.876 253.833C204.876 253.833 204.876 253.833 204.977 253.833C207.193 253.833 209.106 255.933 209.106 258.617Z" fill="white"/>
<path d="M273.076 358.336C273.076 358.336 296.985 360.517 316.509 350.089C339.272 337.815 365.467 309.896 373.502 306.599C373.502 306.599 380.362 302.231 388.497 309.677C388.497 309.677 406.282 367.602 326.709 402.068C326.709 402.068 287.578 374.816 273.076 358.336Z" fill="#EBA5A5"/>
<path d="M388.834 313.162C392.143 311.718 394.726 308.932 396.243 305.376C398.83 299.397 385.485 305.736 385.485 305.736C385.485 305.736 387.604 298.051 383.596 293.743C379.588 289.434 375.49 305.61 375.49 305.61C375.49 305.61 381.734 305.119 388.834 313.162Z" fill="#CC6666"/>
<path d="M361.46 385.737C361.46 385.737 381.332 368.351 389.556 331.587C395.87 303.718 374.371 300.634 365.919 310.487C354.205 324.267 322.982 348.727 312.301 352.075C312.301 352.075 333.675 349.688 347.415 333.955C365.477 313.343 369.846 306.029 380.454 310.389C391.062 314.75 386.251 348.646 361.46 385.737Z" fill="#D88484"/>
<path d="M336.256 169.828C335.066 168.752 333.707 168.211 332.183 168.205C330.661 168.198 329.413 168.728 328.44 169.805C327.344 171.017 326.91 172.353 327.135 173.814C327.362 175.277 328.039 176.523 329.174 177.549C330.327 178.592 331.645 179.157 333.124 179.252C334.605 179.344 335.899 178.777 337.01 177.547C337.982 176.471 338.396 175.187 338.253 173.689C338.111 172.192 337.448 170.905 336.254 169.827" fill="#CC6666"/>
<path d="M372.526 154.143C372.933 151.49 372.569 148.746 371.444 145.98C370.323 143.232 368.45 140.66 365.874 138.333C363.102 135.827 360.11 134.177 356.986 133.431C353.857 132.685 350.911 132.693 348.23 133.455C345.537 134.221 343.375 135.486 341.808 137.22C340.973 138.145 340.578 139.357 340.633 140.816C340.687 142.284 341.275 143.533 342.38 144.531C344.264 146.234 346.547 146.289 349.16 144.711C351.376 143.455 353.347 142.751 355.015 142.612C356.585 142.48 358.272 143.218 360.027 144.803C361.541 146.171 362.352 147.675 362.509 149.406C362.663 151.112 362.189 152.551 361.057 153.803C360.486 154.435 359.825 154.869 359.043 155.139C358.219 155.418 357.359 155.581 356.484 155.627C355.56 155.674 354.1 155.68 352.139 155.65C349.855 155.616 347.942 155.665 346.459 155.801C344.913 155.938 343.382 156.358 341.903 157.042C340.418 157.734 338.969 158.854 337.598 160.372C336.427 161.667 335.882 162.996 335.978 164.324C336.074 165.638 336.642 166.777 337.672 167.708C339.641 169.487 341.85 169.529 344.038 167.848C344.98 167.18 345.65 166.723 346.045 166.475C346.403 166.25 346.807 166.051 347.245 165.884C347.672 165.722 348.224 165.6 348.891 165.523C349.59 165.438 350.471 165.392 351.506 165.387C355.342 165.408 358.079 165.388 359.643 165.326C361.256 165.262 362.913 164.93 364.566 164.341C366.261 163.74 367.833 162.648 369.233 161.099C371.005 159.14 372.113 156.796 372.525 154.138" fill="#CC6666"/>
<path d="M294.587 125.679C293 125.435 291.568 125.731 290.292 126.564C289.017 127.396 288.266 128.525 288.046 129.959C287.798 131.574 288.171 132.929 289.161 134.025C290.156 135.122 291.407 135.79 292.919 136.023C294.456 136.259 295.867 136.006 297.155 135.272C298.442 134.534 299.21 133.349 299.462 131.711C299.682 130.277 299.321 128.977 298.378 127.805C297.436 126.633 296.174 125.923 294.584 125.679" fill="#CC6666"/>
<path d="M316.247 92.6289C315.127 90.1898 313.314 88.0981 310.853 86.4065C308.405 84.7288 305.426 83.6115 301.995 83.0846C298.302 82.5174 294.895 82.7848 291.876 83.8808C288.853 84.9787 286.397 86.6059 284.577 88.7167C282.749 90.8381 281.64 93.0836 281.286 95.3937C281.096 96.6255 281.434 97.8545 282.282 99.0433C283.135 100.24 284.313 100.959 285.784 101.185C288.295 101.571 290.231 100.36 291.546 97.6052C292.706 95.3377 293.964 93.6657 295.28 92.6318C296.519 91.6576 298.334 91.3456 300.671 91.7046C302.688 92.0142 304.192 92.824 305.276 94.183C306.343 95.5231 306.738 96.9855 306.482 98.6535C306.353 99.4958 306.04 100.222 305.536 100.877C305.001 101.563 304.372 102.172 303.666 102.692C302.921 103.24 301.705 104.048 300.051 105.102C298.124 106.33 296.554 107.423 295.39 108.352C294.175 109.317 293.127 110.51 292.268 111.895C291.409 113.29 290.815 115.022 290.504 117.044C290.239 118.77 290.515 120.179 291.326 121.235C292.129 122.281 293.23 122.919 294.602 123.13C297.225 123.533 299.093 122.352 299.995 119.745C300.415 118.668 300.723 117.918 300.916 117.495C301.091 117.109 301.319 116.721 301.594 116.341C301.861 115.97 302.255 115.565 302.769 115.134C303.306 114.678 304.017 114.155 304.879 113.582C308.093 111.489 310.368 109.967 311.64 109.054C312.952 108.114 314.153 106.925 315.209 105.523C316.295 104.09 317.006 102.313 317.323 100.249C317.726 97.6382 317.361 95.0716 316.243 92.625" fill="#CC6666"/>
<path d="M233.205 160.581C231.624 160.306 230.186 160.573 228.894 161.381C227.603 162.187 226.83 163.302 226.582 164.731C226.302 166.341 226.647 167.703 227.616 168.818C228.589 169.935 229.827 170.628 231.334 170.89C232.866 171.156 234.282 170.931 235.583 170.223C236.885 169.511 237.677 168.341 237.96 166.708C238.209 165.279 237.873 163.972 236.954 162.781C236.035 161.591 234.787 160.856 233.203 160.581" fill="#CC6666"/>
<path d="M255.514 127.965C254.443 125.504 252.671 123.377 250.244 121.637C247.83 119.912 244.873 118.736 241.453 118.141C237.772 117.501 234.361 117.701 231.32 118.737C228.276 119.775 225.789 121.354 223.928 123.428C222.058 125.513 220.905 127.736 220.505 130.039C220.292 131.267 220.604 132.502 221.429 133.708C222.258 134.92 223.422 135.663 224.889 135.918C227.391 136.353 229.351 135.181 230.719 132.453C231.924 130.208 233.215 128.562 234.551 127.554C235.809 126.604 237.63 126.328 239.96 126.733C241.97 127.083 243.458 127.922 244.515 129.302C245.555 130.663 245.921 132.133 245.632 133.795C245.486 134.635 245.159 135.355 244.642 136C244.094 136.675 243.453 137.272 242.737 137.778C241.981 138.311 240.749 139.095 239.075 140.116C237.124 141.305 235.533 142.367 234.351 143.273C233.117 144.214 232.046 145.386 231.16 146.754C230.273 148.132 229.645 149.851 229.295 151.867C228.996 153.587 229.244 155.002 230.034 156.074C230.815 157.135 231.904 157.795 233.271 158.033C235.886 158.487 237.777 157.344 238.73 154.755C239.171 153.687 239.494 152.943 239.695 152.523C239.878 152.141 240.114 151.758 240.396 151.383C240.67 151.017 241.072 150.62 241.595 150.199C242.141 149.754 242.862 149.246 243.734 148.689C246.99 146.66 249.294 145.183 250.584 144.296C251.914 143.382 253.138 142.217 254.222 140.836C255.336 139.424 256.082 137.662 256.44 135.605C256.894 133.002 256.58 130.429 255.51 127.961" fill="#CC6666"/>
<path d="M173.991 122.945C172.399 122.741 170.974 123.072 169.719 123.936C168.465 124.8 167.743 125.947 167.558 127.386C167.351 129.007 167.757 130.352 168.774 131.423C169.796 132.495 171.063 133.132 172.58 133.327C174.123 133.524 175.528 133.237 176.796 132.471C178.065 131.702 178.803 130.497 179.014 128.854C179.199 127.415 178.805 126.124 177.834 124.976C176.862 123.828 175.583 123.149 173.988 122.945" fill="#CC6666"/>
<path d="M194.822 89.3666C193.643 86.956 191.778 84.9101 189.276 83.2801C186.787 81.6638 183.781 80.6209 180.338 80.1795C176.631 79.7043 173.233 80.0563 170.242 81.2269C167.247 82.3996 164.832 84.0874 163.066 86.2428C161.291 88.409 160.238 90.6813 159.941 92.9996C159.782 94.2357 160.15 95.4558 161.028 96.6232C161.91 97.7979 163.106 98.488 164.582 98.6773C167.101 99.0003 169.007 97.7424 170.253 94.9554C171.356 92.6597 172.572 90.9569 173.862 89.8906C175.077 88.8859 176.883 88.5289 179.229 88.8297C181.253 89.0891 182.777 89.8613 183.894 91.1929C184.994 92.5061 185.425 93.9582 185.211 95.632C185.102 96.4772 184.807 97.211 184.319 97.8783C183.802 98.5775 183.188 99.2024 182.496 99.7397C181.764 100.306 180.569 101.144 178.942 102.238C177.046 103.514 175.503 104.645 174.363 105.603C173.172 106.598 172.154 107.817 171.33 109.223C170.505 110.639 169.955 112.385 169.695 114.414C169.473 116.146 169.784 117.548 170.621 118.584C171.449 119.608 172.566 120.22 173.943 120.396C176.575 120.733 178.413 119.507 179.25 116.878C179.643 115.792 179.932 115.034 180.115 114.606C180.28 114.216 180.498 113.822 180.763 113.435C181.021 113.058 181.405 112.643 181.908 112.2C182.434 111.73 183.132 111.19 183.979 110.595C187.14 108.423 189.376 106.845 190.625 105.901C191.914 104.929 193.085 103.71 194.106 102.283C195.155 100.823 195.823 99.029 196.088 96.9576C196.426 94.3375 195.997 91.7808 194.819 89.3627" fill="#CC6666"/>
<path d="M134.98 166.894C133.653 167.798 132.807 168.991 132.442 170.47C132.077 171.948 132.298 173.286 133.114 174.484C134.035 175.835 135.231 176.572 136.703 176.698C138.178 176.822 139.549 176.458 140.814 175.597C142.099 174.721 142.959 173.574 143.4 172.159C143.838 170.742 143.592 169.351 142.659 167.981C141.842 166.782 140.691 166.078 139.202 165.863C137.714 165.649 136.307 165.99 134.978 166.895" fill="#CC6666"/>
<path d="M128.284 127.95C125.801 126.929 123.049 126.636 120.095 127.077C117.161 127.519 114.22 128.734 111.351 130.688C108.263 132.792 105.954 135.311 104.493 138.171C103.031 141.036 102.344 143.901 102.453 146.686C102.562 149.484 103.283 151.883 104.599 153.814C105.3 154.844 106.385 155.513 107.816 155.804C109.256 156.097 110.608 155.82 111.838 154.982C113.937 153.552 114.528 151.346 113.611 148.435C112.913 145.985 112.693 143.904 112.95 142.25C113.192 140.693 114.307 139.227 116.261 137.896C117.948 136.747 119.6 136.313 121.319 136.568C123.014 136.821 124.3 137.621 125.25 139.015C125.73 139.72 125.996 140.464 126.074 141.287C126.151 142.154 126.107 143.028 125.945 143.89C125.773 144.799 125.435 146.219 124.944 148.118C124.372 150.329 123.969 152.2 123.752 153.673C123.521 155.208 123.568 156.795 123.884 158.394C124.207 160 124.954 161.671 126.106 163.362C127.088 164.805 128.252 165.648 129.565 165.867C130.865 166.084 132.106 165.8 133.253 165.019C135.446 163.525 136.007 161.387 134.889 158.866C134.462 157.792 134.176 157.033 134.028 156.592C133.893 156.19 133.795 155.751 133.736 155.285C133.679 154.832 133.691 154.267 133.773 153.601C133.855 152.901 134.019 152.034 134.258 151.027C135.181 147.304 135.807 144.64 136.115 143.105C136.434 141.523 136.502 139.834 136.318 138.089C136.134 136.3 135.443 134.515 134.268 132.789C132.782 130.605 130.764 128.977 128.278 127.95" fill="#CC6666"/>
</g>
<defs>
<clipPath id="clip0">
<rect width="487" height="421" fill="white"/>
</clipPath>
</defs>
</svg>
