<svg width="381" height="390" viewBox="0 0 381 390" fill="none" xmlns="http://www.w3.org/2000/svg">
<g opacity="0.8">
<path d="M340.889 251.324C340.889 300.997 289.803 344.461 276.578 354.928C274.59 356.436 272.17 357.323 269.749 357.323C263.526 357.323 258.512 352.178 258.512 345.792V324.592L340.889 251.324Z" fill="#CC7272"/>
<path d="M287.987 251.324C287.987 300.997 236.901 344.461 223.676 354.928C221.688 356.436 219.268 357.323 216.847 357.323C210.624 357.323 205.61 352.178 205.61 345.792V324.592L287.987 251.324Z" fill="#CC7272"/>
<path d="M233.444 348.985C292.784 348.985 340.888 307.127 340.888 255.493C340.888 203.858 292.784 162 233.444 162C174.104 162 126 203.858 126 255.493C126 307.127 174.104 348.985 233.444 348.985Z" fill="url(#paint0_linear)"/>
<path d="M233.444 162.088C233.358 162.088 233.271 162.088 233.185 162.088C210.624 164.749 193.941 188.167 197.399 213.979C201.375 243.074 233.358 276.603 282.282 284.853C313.746 290.086 340.888 274.12 340.888 255.581C340.888 203.956 292.828 162.088 233.444 162.088Z" fill="#EFB7B7"/>
<path d="M179.506 255.492C179.506 305.166 230.592 348.63 243.817 359.097C245.805 360.605 248.225 361.492 250.646 361.492C256.869 361.492 261.883 356.347 261.883 349.961V328.761L179.506 255.492Z" fill="url(#paint1_linear)"/>
<path d="M199.56 167.943C196.275 169.274 194.374 171.491 194.374 172.999C195.152 175.305 211.229 165.016 246.151 169.451C249.349 169.54 253.066 165.548 250.3 164.218C232.234 161.557 212.699 163.242 199.56 167.943Z" fill="#F3C9C9"/>
<path d="M200.597 167.411C197.399 168.653 195.583 170.515 195.583 171.846C196.275 173.797 211.834 164.839 245.459 168.564C248.571 168.653 252.201 165.105 249.522 164.04C232.061 161.734 213.217 163.242 200.597 167.411Z" fill="#F6949E"/>
<path d="M311.435 289.792C331.629 287.323 346.526 272.624 344.708 256.96C342.889 241.295 325.044 230.599 304.849 233.067C284.655 235.536 269.758 250.236 271.577 265.9C273.395 281.564 291.24 292.261 311.435 289.792Z" fill="#F1BFBF"/>
<path d="M346.767 258.863C348.582 274.475 333.714 289.199 313.574 291.683C293.433 294.167 275.54 283.434 273.725 267.822C271.91 252.21 286.778 237.486 306.918 235.002C327.058 232.518 344.951 243.251 346.767 258.863Z" fill="url(#paint2_linear)"/>
<path d="M257.907 194.731C257.693 193.94 249.868 176.37 245.2 172.555C235.692 164.661 214.168 175.749 217.107 214.6C217.107 214.6 219.182 217.528 230.505 217.262C222.38 202.005 226.599 175.075 237.491 171.616C246.27 168.828 257.018 194.448 257.243 195.071C257.468 195.694 258.121 195.522 257.907 194.731Z" fill="#D88484"/>
<path d="M315.908 174.596C322.39 177.878 320.229 189.498 317.809 197.658C317.896 197.747 318.069 197.924 318.155 198.013C320.316 191.538 321.267 185.151 320.316 180.982C317.982 170.338 300.521 166.08 284.789 173.531C288.074 175.128 291.359 176.813 294.471 178.676C302.337 173.975 310.894 172.023 315.908 174.596Z" fill="#EBA5A5"/>
<path d="M315.908 174.596C310.894 172.112 302.337 174.063 294.471 178.676C297.669 180.627 300.781 182.667 303.633 184.885C310.116 189.586 317.118 197.037 317.723 197.747C320.23 189.409 322.304 177.789 315.908 174.596Z" fill="#D88484"/>
<path d="M126 255.492C126 305.166 177.086 348.63 190.311 359.097C192.299 360.605 194.719 361.492 197.14 361.492C203.363 361.492 208.377 356.347 208.377 349.961V328.761L126 255.492Z" fill="url(#paint3_linear)"/>
<path d="M172.677 323.439C162.737 319.003 150.981 316.431 143.893 308.98C159.798 333.728 181.84 352.444 190.138 359.008C191.694 360.25 193.423 361.137 195.411 361.403C197.572 361.758 199.647 361.492 201.462 360.694C199.301 357.323 195.757 351.38 192.299 345.703C187.026 337.099 181.754 327.519 172.677 323.439Z" fill="#CC7272"/>
<path d="M208.464 337.276V350.848C208.464 350.848 218.837 352.711 219.96 348.275C216.676 347.921 208.464 337.276 208.464 337.276Z" fill="#CC7272"/>
<path d="M261.969 337.276V350.848C261.969 350.848 268.452 348.098 269.576 343.574C265.773 344.727 261.969 337.276 261.969 337.276Z" fill="#CC7272"/>
<path d="M245.719 345.703C240.532 337.099 234.568 326.366 224.973 322.907C216.329 319.802 212.785 329.737 221.948 339.405C231.024 348.719 239.236 355.549 243.644 359.008C245.2 360.25 246.929 361.137 248.917 361.403C251.078 361.758 253.152 361.492 254.968 360.694C252.72 357.412 249.176 351.469 245.719 345.703Z" fill="#CC7272"/>
</g>
<path d="M24.4381 106.154C23.0299 106.155 21.6641 105.661 20.5693 104.754C19.4746 103.847 18.7173 102.583 18.4244 101.173C18.1315 99.7634 18.3207 98.2932 18.9603 97.009C19.5998 95.7247 20.651 94.7044 21.9378 94.1188L116.354 48.0501C119.45 46.6485 123.081 48.0805 124.451 51.2493C125.82 54.418 124.421 58.1352 121.325 59.5368L26.9087 105.636C26.105 106.002 25.2715 106.154 24.4381 106.154Z" fill="#F2F2F2"/>
<path d="M321.648 107.098C321.201 107.098 320.725 107.037 320.279 106.946L122.129 59.9629C121.342 59.781 120.598 59.4417 119.94 58.9645C119.281 58.4873 118.722 57.8815 118.293 57.1821C117.864 56.4827 117.575 55.7034 117.441 54.8891C117.308 54.0748 117.333 53.2415 117.515 52.4371C117.693 51.6317 118.024 50.8701 118.491 50.1963C118.957 49.5225 119.548 48.9496 120.232 48.5107C120.915 48.0718 121.676 47.7755 122.472 47.6389C123.267 47.5022 124.081 47.5279 124.867 47.7144L323.017 94.7277C326.321 95.4894 328.405 98.8715 327.631 102.254C327.315 103.634 326.551 104.864 325.465 105.744C324.378 106.624 323.033 107.101 321.648 107.098Z" fill="#F2F2F2"/>
<path d="M271.016 214.408V195.304C271.016 191.8 273.814 188.936 277.237 188.936H286.583C290.006 188.936 292.804 191.8 292.804 195.304V214.408C292.804 217.912 290.006 220.776 286.583 220.776H277.237C273.784 220.807 271.016 217.943 271.016 214.408Z" fill="#F2F2F2"/>
<path d="M281.911 241.068C279.351 241.068 277.237 238.905 277.237 236.285V146.402C277.237 143.781 279.351 141.618 281.911 141.618C284.47 141.618 286.584 143.781 286.584 146.402V236.285C286.554 238.905 284.47 241.068 281.911 241.068Z" fill="#F2F2F2"/>
<path d="M281.642 273.458C270.599 273.458 261.58 264.256 261.58 252.922C261.58 241.618 270.569 232.386 281.642 232.386C284.112 232.386 286.106 234.427 286.106 236.956C286.106 239.485 284.112 241.526 281.642 241.526C275.51 241.526 270.509 246.645 270.509 252.922C270.509 259.198 275.51 264.317 281.642 264.317C287.773 264.317 292.774 259.198 292.774 252.922C292.774 250.393 294.768 248.351 297.239 248.351C299.709 248.351 301.704 250.393 301.704 252.922C301.674 264.226 292.685 273.458 281.642 273.458Z" fill="#F2F2F2"/>
<path d="M89.2377 357.428C85.8444 357.428 83.106 354.625 83.106 351.152V101.978C83.106 98.5049 85.8444 95.7017 89.2377 95.7017C92.631 95.7017 95.3694 98.5049 95.3694 101.978V351.121C95.3694 354.595 92.631 357.428 89.2377 357.428Z" fill="#F6949E"/>
<path d="M153.323 357.428C149.93 357.428 147.192 354.625 147.192 351.152V101.978C147.192 98.5049 149.93 95.7017 153.323 95.7017C156.717 95.7017 159.455 98.5049 159.455 101.978V351.121C159.459 351.948 159.303 352.768 158.997 353.533C158.69 354.298 158.239 354.993 157.67 355.579C157.1 356.165 156.423 356.63 155.677 356.948C154.931 357.265 154.131 357.428 153.323 357.428Z" fill="#F6949E"/>
<path d="M88.8816 347.191C87.691 347.191 86.5301 346.734 85.6372 345.82C83.8512 343.992 83.8512 341.006 85.6372 339.147L149.187 274.097C150.973 272.268 153.89 272.268 155.705 274.097C157.491 275.925 157.491 278.911 155.705 280.769L92.1558 345.82C91.2629 346.734 90.0723 347.191 88.8816 347.191Z" fill="#F6949E"/>
<path d="M152.431 347.191C151.241 347.191 150.08 346.734 149.187 345.82L85.6372 280.769C83.8512 278.941 83.8512 275.955 85.6372 274.097C87.4231 272.268 90.3401 272.268 92.1558 274.097L155.705 339.147C157.491 340.975 157.491 343.961 155.705 345.82C154.812 346.734 153.622 347.191 152.431 347.191Z" fill="#F6949E"/>
<path d="M152.431 281.501H89.9828C87.4528 281.501 85.3692 279.398 85.3692 276.778C85.3692 274.158 87.423 272.055 89.9828 272.055H152.461C154.991 272.055 157.075 274.158 157.075 276.778C157.045 279.368 154.991 281.501 152.431 281.501Z" fill="#F6949E"/>
<path d="M88.8816 281.958C87.691 281.958 86.5301 281.501 85.6372 280.587C83.8512 278.759 83.8512 275.773 85.6372 273.914L149.187 208.864C150.973 207.035 153.89 207.035 155.705 208.864C157.491 210.692 157.491 213.678 155.705 215.536L92.1558 280.557C91.2629 281.471 90.0723 281.958 88.8816 281.958Z" fill="#F6949E"/>
<path d="M152.431 281.957C151.241 281.957 150.08 281.5 149.187 280.586L85.6372 215.505C83.8512 213.677 83.8512 210.691 85.6372 208.832C87.4231 207.004 90.3401 207.004 92.1558 208.832L155.705 273.883C156.345 274.547 156.78 275.39 156.954 276.306C157.128 277.222 157.035 278.17 156.685 279.032C156.336 279.894 155.746 280.631 154.989 281.151C154.233 281.671 153.343 281.952 152.431 281.957Z" fill="#F6949E"/>
<path d="M152.431 216.511H89.9828C87.4528 216.511 85.3692 214.409 85.3692 211.788C85.3692 209.168 87.423 207.066 89.9828 207.066H152.461C154.991 207.066 157.075 209.168 157.075 211.788C157.045 214.378 154.991 216.511 152.431 216.511Z" fill="#F6949E"/>
<path d="M88.8816 217.212C87.691 217.212 86.5301 216.755 85.6372 215.841C83.8512 214.013 83.8512 211.027 85.6372 209.168L149.187 144.117C150.973 142.289 153.89 142.289 155.705 144.117C157.491 145.946 157.491 148.932 155.705 150.79L92.1558 215.841C91.2629 216.755 90.0723 217.212 88.8816 217.212Z" fill="#F6949E"/>
<path d="M284.114 153.227C282.923 153.227 281.762 152.77 280.869 151.856L239.078 109.078C237.292 107.249 237.292 104.263 239.078 102.405C240.864 100.577 243.781 100.577 245.597 102.405L287.388 145.183C289.174 147.011 289.174 149.997 287.388 151.856C286.465 152.77 285.304 153.227 284.114 153.227Z" fill="#F6949E"/>
<path d="M195.501 153.227C194.31 153.227 193.149 152.77 192.256 151.856C190.47 150.028 190.47 147.042 192.256 145.183L234.047 102.405C235.833 100.577 238.75 100.577 240.566 102.405C242.352 104.233 242.352 107.219 240.566 109.078L198.775 151.856C197.852 152.77 196.691 153.227 195.501 153.227Z" fill="#F6949E"/>
<path d="M366.861 153.105C365.283 153.105 363.706 152.496 362.515 151.277L317.748 105.422C315.337 102.954 315.337 98.9926 317.748 96.5247C320.159 94.0567 324.028 94.0567 326.439 96.5247L371.207 142.35C373.618 144.818 373.618 148.779 371.207 151.247C370.016 152.496 368.439 153.105 366.861 153.105Z" fill="#F6949E"/>
<path d="M280.453 153.227C279.262 153.227 278.102 152.77 277.209 151.856C275.423 150.028 275.423 147.042 277.209 145.183L319 102.405C320.786 100.577 323.703 100.577 325.518 102.405C327.304 104.233 327.304 107.219 325.518 109.078L283.727 151.856C282.834 152.77 281.644 153.227 280.453 153.227Z" fill="#F6949E"/>
<path d="M199.816 153.227C198.625 153.227 197.465 152.77 196.572 151.856L154.781 109.078C152.995 107.249 152.995 104.263 154.781 102.405C156.567 100.577 159.484 100.577 161.299 102.405L203.09 145.183C204.876 147.011 204.876 149.997 203.09 151.856C202.168 152.77 201.007 153.227 199.816 153.227Z" fill="#F6949E"/>
<path d="M93.7914 150.576C92.6007 150.576 91.4399 150.119 90.5469 149.205L50.78 108.529C48.9941 106.701 48.9941 103.715 50.78 101.856C52.566 100.028 55.483 100.028 57.2987 101.856L97.0358 142.532C98.8218 144.36 98.8218 147.346 97.0358 149.205C96.1429 150.119 94.982 150.576 93.7914 150.576Z" fill="#F6949E"/>
<path d="M100.22 149.663C99.0293 149.663 97.8685 149.206 96.9755 148.292C95.1896 146.464 95.1896 143.478 96.9755 141.619L141.743 95.7941C143.529 93.966 146.446 93.966 148.262 95.7941C150.048 97.6223 150.048 100.608 148.262 102.467L103.464 148.292C102.571 149.206 101.411 149.663 100.22 149.663Z" fill="#F6949E"/>
<path d="M21.4613 148.017C20.2707 148.017 19.1099 147.56 18.2169 146.646C16.431 144.818 16.431 141.832 18.2169 139.974L59.0256 98.201C60.8115 96.3729 63.7285 96.3729 65.5442 98.201C67.3302 100.029 67.3302 103.015 65.5442 104.874L24.7058 146.646C23.8128 147.56 22.6222 148.017 21.4613 148.017Z" fill="#F6949E"/>
<path d="M152.431 217.212C151.241 217.212 150.08 216.755 149.187 215.841L85.6372 150.79C83.8512 148.962 83.8512 145.976 85.6372 144.117C87.4231 142.289 90.3401 142.289 92.1558 144.117L155.705 209.168C157.491 210.996 157.491 213.982 155.705 215.841C154.812 216.755 153.622 217.212 152.431 217.212Z" fill="#F6949E"/>
<path d="M366.833 153.105H23.1295C19.7362 153.105 16.9977 150.302 16.9977 146.828C16.9977 143.355 19.7362 140.552 23.1295 140.552H366.803C370.197 140.552 372.935 143.355 372.935 146.828C372.935 150.302 370.226 153.105 366.833 153.105Z" fill="#F6949E"/>
<path d="M321.648 107.098H23.1882C19.7949 107.098 17.0565 104.295 17.0565 100.821C17.0565 97.3479 19.7949 94.5448 23.1882 94.5448H321.648C325.041 94.5448 327.78 97.3479 327.78 100.821C327.78 104.295 325.041 107.098 321.648 107.098Z" fill="#F6949E"/>
<path d="M168.98 363.096H72.0926C68.9076 363.096 66.318 360.446 66.318 357.185V347.253C66.318 343.992 68.9076 341.342 72.0926 341.342H168.98C172.165 341.342 174.754 343.992 174.754 347.253V357.185C174.754 360.446 172.165 363.096 168.98 363.096Z" fill="#F6949E"/>
<path d="M150.376 107.219C148.262 107.219 146.208 106.092 145.047 104.111L121.175 62.1865L97.3034 103.99C95.577 106.976 91.8265 108.011 88.9095 106.244C85.9925 104.477 84.9804 100.638 86.7068 97.6521L113.555 50.6388C115.133 47.8662 118.05 46.1599 121.205 46.1599C124.331 46.1599 127.277 47.8966 128.855 50.6388L155.704 97.774C157.4 100.76 156.418 104.629 153.501 106.366C152.489 106.945 151.417 107.219 150.376 107.219Z" fill="#F6949E"/>
<path d="M23.0387 153.075C19.6454 153.075 16.907 150.272 16.907 146.799V100.821C16.907 97.3479 19.6454 94.5448 23.0387 94.5448C26.432 94.5448 29.1704 97.3479 29.1704 100.821V146.799C29.1744 147.624 29.0185 148.442 28.7117 149.205C28.405 149.969 27.9535 150.662 27.3833 151.246C26.8131 151.83 26.1356 152.292 25.3899 152.606C24.6442 152.92 23.8451 153.079 23.0387 153.075Z" fill="#F6949E"/>
<path d="M350.788 295.456H213.092C209.699 295.456 206.96 292.653 206.96 289.179C206.96 285.706 209.699 282.903 213.092 282.903H350.788C354.181 282.903 356.92 285.706 356.92 289.179C356.92 292.653 354.181 295.456 350.788 295.456Z" fill="#F6949E"/>
<path d="M350.788 346.918H213.092C209.699 346.918 206.96 344.115 206.96 340.641C206.96 337.168 209.699 334.365 213.092 334.365H350.788C354.181 334.365 356.92 337.168 356.92 340.641C356.924 341.466 356.768 342.284 356.461 343.048C356.154 343.811 355.703 344.505 355.133 345.088C354.562 345.672 353.885 346.134 353.139 346.448C352.393 346.762 351.594 346.922 350.788 346.918Z" fill="#F6949E"/>
<path d="M230.385 363.432C226.128 363.432 222.705 359.928 222.705 355.571V271.477C222.705 269.392 223.514 267.393 224.954 265.919C226.395 264.444 228.348 263.616 230.385 263.616C232.421 263.616 234.375 264.444 235.815 265.919C237.255 267.393 238.064 269.392 238.064 271.477V355.601C238.064 359.928 234.611 363.432 230.385 363.432Z" fill="#F6949E"/>
<path d="M328.673 363.432C324.416 363.432 320.993 359.928 320.993 355.571V271.477C320.993 269.392 321.802 267.393 323.242 265.919C324.683 264.444 326.636 263.616 328.673 263.616C330.709 263.616 332.663 264.444 334.103 265.919C335.543 267.393 336.352 269.392 336.352 271.477V355.601C336.352 359.928 332.929 363.432 328.673 363.432Z" fill="#F6949E"/>
<defs>
<linearGradient id="paint0_linear" x1="233.455" y1="164.682" x2="233.455" y2="513.097" gradientUnits="userSpaceOnUse">
<stop offset="0.1411" stop-color="#EBA5A5"/>
<stop offset="0.2272" stop-color="#E69C9C"/>
<stop offset="0.5094" stop-color="#D88585"/>
<stop offset="0.7736" stop-color="#CF7777"/>
<stop offset="1" stop-color="#CC7272"/>
</linearGradient>
<linearGradient id="paint1_linear" x1="220.747" y1="164.681" x2="220.747" y2="513.097" gradientUnits="userSpaceOnUse">
<stop stop-color="#EBA5A5"/>
<stop offset="1" stop-color="#CC7272"/>
</linearGradient>
<linearGradient id="paint2_linear" x1="310.219" y1="235.227" x2="310.219" y2="332.065" gradientUnits="userSpaceOnUse">
<stop stop-color="#EBA5A5"/>
<stop offset="0.2787" stop-color="#E9A1A1"/>
<stop offset="0.5606" stop-color="#E19595"/>
<stop offset="0.8431" stop-color="#D58181"/>
<stop offset="1" stop-color="#CC7272"/>
</linearGradient>
<linearGradient id="paint3_linear" x1="167.241" y1="164.681" x2="167.241" y2="513.097" gradientUnits="userSpaceOnUse">
<stop stop-color="#EBA5A5"/>
<stop offset="1" stop-color="#CC7272"/>
</linearGradient>
</defs>
</svg>
