<svg width="432" height="338" viewBox="0 0 432 338" fill="none" xmlns="http://www.w3.org/2000/svg">
<path fill-rule="evenodd" clip-rule="evenodd" d="M119.492 151.225C119.492 151.225 77.6358 146.524 61.4276 176.775C55.9734 186.953 15.5471 281.344 11.2616 318.544C11.2616 318.544 1.5264 321.623 0.174286 326.62H57.5228C58.1305 326.62 58.6788 326.255 58.9131 325.694C63.0977 315.683 99.8187 227.823 99.8187 227.823C99.8187 227.823 104.54 307.465 105.504 323.737C105.601 325.357 106.942 326.62 108.564 326.62C119.436 326.62 157.302 326.62 157.302 326.62C157.302 326.62 155.959 321.371 146.124 318.544C146.124 318.544 151.442 194.654 136.679 163.635L119.492 151.225Z" fill="url(#paint0_linear)"/>
<path fill-rule="evenodd" clip-rule="evenodd" d="M91.6802 247.268L96.8567 195.041C96.892 194.678 97.2008 194.405 97.5662 194.414C97.9292 194.424 98.2239 194.714 98.2404 195.079L99.716 228.043L91.6802 247.268Z" fill="#13524E"/>
<path fill-rule="evenodd" clip-rule="evenodd" d="M147.059 270.807C147.059 271.599 147.057 272.384 147.054 273.164H102.509L102.37 270.807H147.059ZM23.8418 270.807H81.8556L80.8705 273.164H23.0508L23.0632 273.126C23.3133 272.376 23.5649 271.629 23.8176 270.88L23.8418 270.807Z" fill="#82B5B2"/>
<path d="M87.3917 78.6872C95.8991 78.6872 102.796 71.7905 102.796 63.283C102.796 54.7756 95.8991 47.8789 87.3917 47.8789C78.8842 47.8789 71.9875 54.7756 71.9875 63.283C71.9875 71.7905 78.8842 78.6872 87.3917 78.6872Z" fill="#A8CFCC"/>
<path fill-rule="evenodd" clip-rule="evenodd" d="M86.2538 47.9182C87.0317 51.0578 88.1561 58.9754 82.3036 65.9712C81.6831 64.9665 80.5604 64.2947 79.2797 64.2947C77.3276 64.2947 75.7431 65.8547 75.7431 67.7759C75.7431 69.6973 77.3276 71.2573 79.2797 71.2573C79.6172 71.2573 79.944 71.2104 80.2535 71.1232C80.2975 72.3365 79.9838 74.0327 78.4959 75.8549C74.5593 73.0639 71.9875 68.4703 71.9875 63.2809C71.9875 55.1616 78.2826 48.5012 86.2538 47.9182Z" fill="black"/>
<path fill-rule="evenodd" clip-rule="evenodd" d="M74.7474 71.0698C74.3094 71.3268 73.2065 71.2881 72.7048 71.3888C71.0595 71.7185 69.4236 72.1011 67.7947 72.5037C62.757 73.7486 57.791 75.2466 53.0914 77.4719C49.6722 79.0908 46.0922 81.1402 44.4744 84.728C42.1229 89.9431 46.3023 94.6239 51.7357 94.1341C56.9759 93.6617 61.0886 89.8651 64.5801 86.2948C68.6652 82.1175 73.3297 77.615 76.4618 72.6296" fill="black"/>
<path fill-rule="evenodd" clip-rule="evenodd" d="M56.7493 105.707C54.1422 108.485 31.2062 133.56 13.9728 152.906C8.19095 159.449 7.66717 169.109 12.7077 176.24C12.707 176.242 12.7072 176.242 12.7072 176.242C17.1343 182.505 25.1473 185.119 32.4164 182.673C40.2927 180.018 51.0495 173.889 63.5676 160.158C69.9266 153.183 74.9817 146.814 79.1531 142.915C79.1531 142.915 97.4533 148.802 106.866 138.711C106.866 138.711 129.844 168.072 152.083 179.775C160.877 184.349 171.714 181.279 176.803 172.772C179.172 168.845 180.167 164.116 177.501 158.982C165.828 136.495 147.498 119.48 119.482 92.5427C114.044 87.3125 104.534 79.8421 86.1173 84.1052C79.1783 85.7114 70.72 90.8222 56.7493 105.707Z" fill="#A8CFCC"/>
<path fill-rule="evenodd" clip-rule="evenodd" d="M97.0707 124.2C97.0707 124.2 97.6741 124.044 98.386 124.108C98.9895 124.163 99.7037 124.376 100.071 125.136C100.564 126.157 99.8192 127 98.683 127.862C96.38 129.61 92.3232 131.138 88.7307 132.601C88.2475 132.797 88.0165 133.347 88.2121 133.83C88.4078 134.311 88.9594 134.544 89.4402 134.347C93.1953 132.819 97.4172 131.19 99.8239 129.364C101.832 127.841 102.641 126.123 101.769 124.316C101.057 122.842 99.7273 122.336 98.5557 122.23C97.4926 122.134 96.5898 122.377 96.5898 122.377C96.0853 122.51 95.786 123.026 95.918 123.529C96.0523 124.032 96.5686 124.333 97.0707 124.2Z" fill="#82B5B2"/>
<path fill-rule="evenodd" clip-rule="evenodd" d="M104.368 120.335C104.368 120.335 105.49 119.248 107.018 118.379C107.972 117.838 109.09 117.367 110.186 117.372C110.634 117.373 111.056 117.567 111.346 117.905C111.636 118.242 111.763 118.689 111.694 119.129C111.511 120.187 111.006 121.624 109.705 122.996C107.916 124.883 103.388 130.58 88.9659 132.406C88.4497 132.472 88.0843 132.944 88.1503 133.46C88.2163 133.976 88.6877 134.342 89.204 134.277C104.425 132.349 109.184 126.286 111.075 124.294C112.701 122.58 113.321 120.78 113.557 119.434C113.71 118.432 113.425 117.433 112.779 116.678C112.131 115.923 111.188 115.488 110.193 115.486C108.779 115.479 107.319 116.039 106.087 116.74C104.335 117.734 103.053 118.983 103.053 118.983C102.68 119.346 102.671 119.944 103.034 120.317C103.397 120.69 103.993 120.698 104.368 120.335Z" fill="#82B5B2"/>
<path fill-rule="evenodd" clip-rule="evenodd" d="M106.82 126.518C106.82 126.518 104.404 132.685 102.018 135.068C101.651 135.436 101.651 136.034 102.018 136.402C102.386 136.77 102.985 136.77 103.353 136.402C105.922 133.833 108.574 127.213 108.574 127.213C108.765 126.729 108.529 126.181 108.044 125.989C107.56 125.797 107.011 126.034 106.82 126.518Z" fill="#82B5B2"/>
<path fill-rule="evenodd" clip-rule="evenodd" d="M99.5415 130.58V132.799C99.5415 133.319 99.9635 133.742 100.484 133.742C101.003 133.742 101.427 133.319 101.427 132.799V130.58C101.427 130.059 101.003 129.637 100.484 129.637C99.9635 129.637 99.5415 130.059 99.5415 130.58Z" fill="#82B5B2"/>
<path fill-rule="evenodd" clip-rule="evenodd" d="M106.285 94.946C106.285 94.946 104.777 95.5712 104.067 97.2908C103.631 98.3464 103.471 99.8465 104.296 101.907C105.248 104.282 107.697 111.31 104.369 116.72C104.095 117.163 104.234 117.744 104.675 118.017C105.121 118.29 105.701 118.152 105.974 117.709C109.684 111.681 107.105 103.851 106.045 101.205C105.474 99.7772 105.507 98.7422 105.809 98.0107C106.207 97.0501 107.025 96.68 107.025 96.68C107.504 96.4754 107.728 95.9208 107.523 95.4422C107.318 94.964 106.764 94.7414 106.285 94.946Z" fill="#82B5B2"/>
<path fill-rule="evenodd" clip-rule="evenodd" d="M70.3047 152.537C68.2331 154.921 65.9954 157.495 63.5676 160.158C51.0495 173.889 40.2927 180.018 32.4164 182.673C25.1473 185.119 17.1343 182.505 12.7072 176.242C12.7072 176.242 12.707 176.242 12.7077 176.24C7.66717 169.109 8.19095 159.449 13.9728 152.906C31.2062 133.56 54.1422 108.485 56.7493 105.707C70.72 90.8222 79.1783 85.7114 86.1173 84.1052C104.534 79.8421 114.044 87.3125 119.482 92.5427C147.498 119.48 165.828 136.495 177.501 158.982C180.167 164.116 179.172 168.845 176.803 172.772C172.692 179.643 164.831 182.967 157.325 181.581L150.949 179.165C143.269 174.922 135.546 168.673 128.755 162.346C124.889 158.329 122.24 155.27 122.24 155.27L133.505 127.45L115.361 114.585C114.598 109.322 114.296 105.958 112.667 102.47C112.224 101.516 111.679 100.553 110.998 99.5386C107.832 94.8172 105.838 97.6275 105.838 97.6275C104.367 95.8118 103.002 94.9754 102.092 94.5914C101.611 94.4002 101.072 94.4339 100.619 94.6833C100.169 94.9327 99.853 95.3716 99.7587 95.8792C99.5395 97.1271 100.303 98.5341 100.716 99.18C100.843 99.3757 100.989 99.5588 101.152 99.7267C110.093 108.97 105.15 119.345 105.15 119.345C100.732 124.783 92.8449 124.654 92.8449 124.654C87.0767 125.118 83.4489 123.34 81.3915 121.718C78.3323 119.314 74.286 118.568 70.5706 119.724C61.5022 122.614 51.7173 131.223 51.7173 131.223L70.3047 152.537Z" fill="url(#paint1_linear)"/>
<path fill-rule="evenodd" clip-rule="evenodd" d="M79.1806 142.922L88.4241 132.585C88.4241 132.585 99.5621 137.67 103.091 133.691L107.567 139.588C107.108 139.02 106.867 138.711 106.867 138.711C97.6622 148.58 79.9519 143.165 79.1806 142.922Z" fill="#82B5B2"/>
<path fill-rule="evenodd" clip-rule="evenodd" d="M53.8036 129.511C52.4981 130.548 51.7299 131.224 51.7299 131.224L53.2508 132.968L25.6104 155.881C25.1095 156.296 24.366 156.225 23.9507 155.725C23.5355 155.223 23.6051 154.481 24.106 154.066L53.5131 129.688C53.6032 129.614 53.7013 129.554 53.8036 129.511ZM132.16 126.488C132.407 126.504 132.655 126.598 132.858 126.774L159.775 150.099C160.265 150.525 160.32 151.27 159.893 151.762C159.466 152.253 158.721 152.307 158.231 151.881L132.615 129.683L133.518 127.451L132.16 126.488ZM56.4847 127.469C56.6235 125.199 57.017 120.758 58.0848 116.873C58.1998 116.515 58.5371 116.275 58.9134 116.284C59.2896 116.294 59.6149 116.549 59.7122 116.913C60.2916 119.063 61.086 122.022 61.6211 124.017C59.7245 125.176 57.9716 126.382 56.4847 127.469ZM121.453 118.898L122.717 112.883C122.764 112.657 122.945 112.485 123.172 112.447C123.398 112.41 123.624 112.516 123.74 112.714C124.454 114.292 125.529 117.33 126.05 122.157L121.453 118.898Z" fill="#13524E"/>
<path d="M92.0302 125.091C100.299 125.091 107.002 118.48 107.002 110.325C107.002 102.169 100.299 95.5578 92.0302 95.5578C83.7613 95.5578 77.0581 102.169 77.0581 110.325C77.0581 118.48 83.7613 125.091 92.0302 125.091Z" fill="#FFCD80"/>
<path d="M92.0019 122.605C98.931 122.605 104.548 117.065 104.548 110.231C104.548 103.397 98.931 97.8573 92.0019 97.8573C85.0729 97.8573 79.4558 103.397 79.4558 110.231C79.4558 117.065 85.0729 122.605 92.0019 122.605Z" fill="#FFB000"/>
<path d="M87.7677 115.1C89.1568 116.111 90.7416 116.56 92.5481 116.492C94.6988 116.361 95.7142 115.551 95.6636 114.058C95.5846 112.844 94.8195 112.146 93.3683 111.967C92.6913 111.909 91.9679 111.853 91.1737 111.778C89.7471 111.62 88.6252 111.148 87.8325 110.383C87.0152 109.597 86.5793 108.607 86.5018 107.415C86.4094 105.994 86.7978 104.825 87.7131 103.905C88.5821 102.987 89.8729 102.485 91.5608 102.377C93.6233 102.319 95.4425 102.802 97.0168 103.804L95.7609 105.914C94.4822 105.173 93.0885 104.806 91.606 104.858C90.8423 104.897 90.2063 105.113 89.7225 105.528C89.2156 105.944 88.9766 106.554 89.0041 107.335C89.0354 107.816 89.2474 108.219 89.643 108.59C90.0386 108.961 90.6566 109.183 91.477 109.303C91.9212 109.349 92.552 109.409 93.3448 109.461C94.9087 109.59 96.0784 110.083 96.877 110.939C97.651 111.774 98.0869 112.764 98.1629 113.933C98.2961 117.053 96.455 118.732 92.6859 118.968C90.256 119.091 88.101 118.441 86.2454 117.04L87.7677 115.1Z" fill="#FFCD80"/>
<path fill-rule="evenodd" clip-rule="evenodd" d="M91.2054 100.316L90.774 120.835L93.633 120.835L93.6327 100.316L91.2054 100.316Z" fill="#FFCD80"/>
<path fill-rule="evenodd" clip-rule="evenodd" d="M33.4552 290.996C32.0319 290.739 30.9514 289.492 30.9514 287.996V281.895C30.9514 280.212 32.3181 278.845 34.0014 278.845H68.2628C69.9464 278.845 71.3131 280.212 71.3131 281.895V287.996C71.3131 289.492 70.2326 290.739 68.8093 290.996C70.2326 291.256 71.3131 292.503 71.3131 293.999V300.1C71.3131 301.597 70.2326 302.842 68.8093 303.101C70.2326 303.358 71.3131 304.605 71.3131 306.102V312.202C71.3131 313.699 70.2326 314.946 68.8093 315.203C70.2326 315.462 71.3131 316.707 71.3131 318.204V324.304C71.3131 325.987 69.9464 327.355 68.2628 327.355H34.0014C32.3181 327.355 30.9514 325.987 30.9514 324.304V318.204C30.9514 316.707 32.0319 315.462 33.4552 315.203C32.0319 314.946 30.9514 313.699 30.9514 312.202V306.102C30.9514 304.605 32.0319 303.358 33.4552 303.101C32.0319 302.842 30.9514 301.597 30.9514 300.1V293.999C30.9514 292.503 32.0319 291.256 33.4552 290.996Z" fill="#FFCD80"/>
<path fill-rule="evenodd" clip-rule="evenodd" d="M63.2445 278.845V288.606H71.1569C71.195 288.606 71.2328 288.608 71.2698 288.611C71.0324 289.771 70.1373 290.69 68.9924 290.963H68.9316V290.977C68.8974 290.985 68.863 290.992 68.8281 290.996C68.863 291.003 68.8974 291.01 68.9316 291.018V300.706H71.1569C71.195 300.706 71.233 300.708 71.2702 300.711C71.034 301.868 70.143 302.787 69.0019 303.063H66.481V312.808H71.1569C71.1953 312.808 71.2332 312.808 71.2707 312.813C71.0359 313.965 70.1487 314.885 69.0113 315.165H62.7592V327.355H60.4019V315.165H58.1713V327.355H55.814V315.165H40.1586V327.355H37.8014V315.165H33.291C32.152 314.885 31.2635 313.963 31.0304 312.808H45.8421V303.063H33.3004C32.1574 302.787 31.2652 301.866 31.0309 300.706H34.4265V290.963H33.3098C32.1633 290.69 31.2673 289.766 31.0313 288.606H40.9313V278.845H43.2885V288.606H56.1002V278.845H58.4574V288.606H60.8873V278.845H63.2445ZM48.1994 303.063V312.808H49.9812V303.063H48.1994ZM52.3385 303.063V312.808H64.1238V303.063H52.3385ZM36.7837 290.963V300.706H54.3582V290.963H36.7837ZM56.7154 290.963V300.706H66.5744V290.963H56.7154Z" fill="#FDA425"/>
<path fill-rule="evenodd" clip-rule="evenodd" d="M350.328 128.543C348.716 127.747 347.606 126.085 347.606 124.166V114.409C347.606 111.717 349.791 109.531 352.483 109.531H426.562C429.254 109.531 431.439 111.717 431.439 114.409V124.166C431.439 126.085 430.329 127.747 428.714 128.543C430.329 129.339 431.439 131.001 431.439 132.92V142.676C431.439 144.363 430.581 145.852 429.277 146.728C430.581 147.604 431.439 149.092 431.439 150.779V160.536C431.439 162.224 430.581 163.711 429.277 164.588C430.581 165.463 431.439 166.952 431.439 168.638V178.394C431.439 180.082 430.581 181.57 429.277 182.447C430.581 183.323 431.439 184.811 431.439 186.499V196.255C431.439 197.941 430.581 199.431 429.277 200.308C430.581 201.182 431.439 202.672 431.439 204.357V214.114C431.439 215.802 430.581 217.289 429.277 218.166C430.581 219.043 431.439 220.53 431.439 222.218V231.975C431.439 233.66 430.581 235.15 429.277 236.025C430.581 236.901 431.439 238.389 431.439 240.077V249.833C431.439 251.521 430.581 253.009 429.277 253.885C430.581 254.762 431.439 256.25 431.439 257.938V267.694C431.439 269.38 430.581 270.87 429.277 271.744C430.581 272.621 431.439 274.108 431.439 275.796V285.553C431.439 287.241 430.581 288.728 429.277 289.605C430.581 290.479 431.439 291.969 431.439 293.657V303.411C431.439 305.099 430.581 306.589 429.277 307.464C430.581 308.34 431.439 309.828 431.439 311.516V321.272C431.439 323.964 429.254 326.149 426.562 326.149H352.483C349.791 326.149 347.606 323.964 347.606 321.272V311.516C347.606 309.828 348.464 308.34 349.767 307.464C348.464 306.589 347.606 305.099 347.606 303.411V293.657C347.606 291.969 348.464 290.479 349.767 289.605C348.464 288.728 347.606 287.241 347.606 285.553V275.796C347.606 274.108 348.464 272.621 349.767 271.744C348.464 270.87 347.606 269.38 347.606 267.694V257.938C347.606 256.25 348.464 254.762 349.767 253.885C348.464 253.009 347.606 251.521 347.606 249.833V240.077C347.606 238.389 348.464 236.901 349.767 236.025C348.464 235.15 347.606 233.66 347.606 231.975V222.218C347.606 220.53 348.464 219.043 349.767 218.166C348.464 217.289 347.606 215.802 347.606 214.114V204.357C347.606 202.672 348.464 201.182 349.767 200.308C348.464 199.431 347.606 197.941 347.606 196.255V186.499C347.606 184.811 348.464 183.323 349.767 182.447C348.464 181.57 347.606 180.082 347.606 178.394V168.638C347.606 166.952 348.464 165.463 349.767 164.588C348.464 163.711 347.606 162.224 347.606 160.536V150.779C347.606 149.092 348.464 147.604 349.767 146.728C348.464 145.852 347.606 144.363 347.606 142.676V132.92C347.606 131.001 348.716 129.339 350.328 128.543Z" fill="#FFCD80"/>
<path fill-rule="evenodd" clip-rule="evenodd" d="M408.677 109.531V126.067H417.705C417.825 125.545 418.294 125.155 418.853 125.155C419.411 125.155 419.881 125.545 420.001 126.067H431.066C430.641 127.068 429.894 127.898 428.954 128.425H420.031V144.433H431.125C430.762 145.373 430.116 146.173 429.291 146.728C429.321 146.748 429.35 146.769 429.38 146.791H427.313V162.686C427.313 162.723 427.311 162.761 427.308 162.799H430.896C430.516 163.52 429.963 164.135 429.291 164.588C429.541 164.755 429.774 164.946 429.988 165.156H417.549V180.276H431.075C430.705 181.162 430.078 181.916 429.291 182.447C429.378 182.506 429.465 182.569 429.548 182.633H424.63V198.118H431.082C430.712 199.013 430.083 199.772 429.291 200.308C429.371 200.359 429.449 200.416 429.526 200.475H416.262V215.983H431.082C430.71 216.874 430.083 217.633 429.291 218.166C429.373 218.223 429.453 218.279 429.531 218.34H424.142V233.993H431.014C430.639 234.82 430.038 235.522 429.291 236.025C429.439 236.126 429.583 236.234 429.72 236.35H413.947V251.641H431.106C430.738 252.558 430.102 253.341 429.291 253.885C429.345 253.921 429.397 253.959 429.449 253.999H420.802V269.276H431.188C430.861 270.231 430.248 271.051 429.449 271.633H413.2V287.389H431.094C430.726 288.294 430.092 289.065 429.291 289.605C429.357 289.65 429.423 289.697 429.489 289.746H422.264V305.019H431.181C430.846 305.976 430.224 306.796 429.416 307.376H405.572V326.149H403.215V307.376H398.453V326.149H396.096V307.376H365.134V326.149H362.776V307.376H349.656C348.847 306.796 348.225 305.976 347.89 305.019H352.079V289.746H349.583C349.646 289.697 349.712 289.65 349.781 289.605C348.979 289.065 348.345 288.294 347.975 287.389H363.118V271.633H349.623C348.824 271.051 348.208 270.231 347.881 269.276H353.774V253.999H349.621C349.672 253.959 349.727 253.921 349.781 253.885C348.97 253.341 348.331 252.558 347.966 251.641H360.768V236.35H349.349C349.488 236.234 349.63 236.126 349.781 236.025C349.034 235.522 348.432 234.82 348.055 233.993H353.18V218.34H349.538C349.618 218.279 349.698 218.223 349.781 218.166C348.989 217.633 348.359 216.874 347.989 215.983H361.617V200.475H349.545C349.623 200.416 349.701 200.359 349.781 200.308C348.986 199.772 348.357 199.013 347.987 198.118H351.537V182.633H349.522C349.606 182.569 349.694 182.506 349.781 182.447C348.991 181.916 348.366 181.162 347.994 180.276H355.695V165.156H349.083C349.298 164.946 349.531 164.755 349.781 164.588C349.109 164.135 348.555 163.52 348.175 162.799H369.563V146.791H357.491C357.338 146.863 357.168 146.903 356.989 146.903C356.808 146.903 356.638 146.863 356.485 146.791H349.689C349.72 146.769 349.75 146.748 349.781 146.728C348.956 146.173 348.31 145.373 347.944 144.433H355.811V128.425H350.118C349.177 127.898 348.428 127.068 348.003 126.067H355.839C355.961 125.545 356.428 125.155 356.989 125.155C357.548 125.155 358.017 125.545 358.137 126.067H372.95V109.531H375.307V126.067H377.865V109.531H380.222V126.067H386.997C387.117 125.545 387.586 125.155 388.147 125.155C388.706 125.155 389.175 125.545 389.295 126.067H392.869C392.991 125.545 393.458 125.155 394.019 125.155C394.578 125.155 395.047 125.545 395.167 126.067H406.319V109.531H408.677ZM354.436 289.746V305.019H375.52V289.746H354.436ZM377.877 289.746V305.019H381.479V289.746H377.877ZM383.836 289.746V305.019H419.906V289.746H383.836ZM365.475 271.633V287.389H387.372V271.633H365.475ZM406.345 271.633H389.729V287.389H406.338V271.758L406.345 271.633ZM408.695 287.389H410.843V271.633H408.688C408.693 271.673 408.695 271.716 408.695 271.758V287.389ZM403.644 253.999V269.276H418.445V253.999H403.644ZM377.943 269.276H401.287V253.999H377.922C377.936 254.069 377.943 254.142 377.943 254.216V269.276ZM375.604 253.999H356.131V269.276H375.586V254.216C375.586 254.145 375.59 254.072 375.604 254.001V253.999ZM394.858 236.35V251.641H411.59V236.35H394.858ZM389.533 236.35V251.641H392.501V236.35H389.533ZM363.125 236.35V251.641H387.176V236.35H363.125ZM373.448 218.34V233.993H402.3V218.34H373.448ZM355.537 218.34V233.993H371.09V218.34H355.537ZM404.657 218.34V233.993H421.785V218.34H404.657ZM384.388 200.475V215.983H386.726V200.475H384.388ZM372.474 215.983H382.03V200.475H363.974V215.983H372.064C372.13 215.971 372.198 215.964 372.269 215.964C372.34 215.964 372.408 215.971 372.474 215.983ZM389.083 200.475V215.983H413.905V200.475H389.083ZM415.435 198.118H422.273V182.633H402.977V198.118H414.732C414.843 198.082 414.961 198.063 415.084 198.063C415.206 198.063 415.324 198.082 415.435 198.118ZM397.298 182.633V198.118H400.619V182.633H397.298ZM353.894 182.633V198.118H376.99V182.633H353.894ZM379.348 182.633V198.118H394.941V182.633H379.348ZM358.052 165.156V180.276H360.931V165.156H358.052ZM390.42 165.156V180.276H415.192V165.156H390.42ZM363.288 165.156V180.276H388.062V165.156H363.288ZM376.092 146.791H371.92V162.799H376.099C376.095 162.761 376.092 162.723 376.092 162.686V146.791ZM404.591 146.791H394.521C394.37 146.863 394.198 146.903 394.019 146.903C393.838 146.903 393.668 146.863 393.515 146.791H388.649C388.496 146.863 388.326 146.903 388.147 146.903C387.966 146.903 387.796 146.863 387.643 146.791H378.45V162.686C378.45 162.723 378.45 162.761 378.445 162.799H404.596C404.591 162.761 404.591 162.723 404.591 162.686V146.791ZM424.956 146.791H419.357C419.204 146.863 419.034 146.903 418.853 146.903C418.674 146.903 418.502 146.863 418.351 146.791H406.949V162.686C406.949 162.723 406.946 162.761 406.942 162.799H424.96C424.958 162.761 424.956 162.723 424.956 162.686V146.791ZM358.168 128.425V144.433H386.969V128.425H358.168ZM389.326 128.425V144.433H392.841V128.425H389.326ZM395.198 128.425V144.433H417.674V128.425H395.198Z" fill="#FDA425"/>
<path fill-rule="evenodd" clip-rule="evenodd" d="M224.969 236.684C223.665 235.809 222.807 234.32 222.807 232.634V222.878C222.807 220.186 224.992 217.998 227.684 217.998H301.761C304.455 217.998 306.64 220.186 306.64 222.878V232.634C306.64 234.32 305.782 235.809 304.479 236.684C305.782 237.561 306.64 239.048 306.64 240.736V250.493C306.64 252.181 305.782 253.668 304.479 254.545C305.782 255.419 306.64 256.909 306.64 258.597V268.351C306.64 270.039 305.782 271.529 304.479 272.403C305.782 273.28 306.64 274.768 306.64 276.456V286.212C306.64 287.9 305.782 289.387 304.479 290.264C305.782 291.139 306.64 292.629 306.64 294.314V304.071C306.64 305.759 305.782 307.246 304.479 308.123C305.782 309 306.64 310.487 306.64 312.175V321.932C306.64 324.624 304.455 326.809 301.761 326.809H227.684C224.992 326.809 222.807 324.624 222.807 321.932V312.175C222.807 310.487 223.665 309 224.969 308.123C223.665 307.246 222.807 305.759 222.807 304.071V294.314C222.807 292.629 223.665 291.139 224.969 290.264C223.665 289.387 222.807 287.9 222.807 286.212V276.456C222.807 274.768 223.665 273.28 224.969 272.403C223.665 271.529 222.807 270.039 222.807 268.351V258.597C222.807 256.909 223.665 255.419 224.969 254.545C223.665 253.668 222.807 252.181 222.807 250.493V240.736C222.807 239.048 223.665 237.561 224.969 236.684Z" fill="#FFCD80"/>
<path fill-rule="evenodd" clip-rule="evenodd" d="M289.231 234.68H306.189C305.812 235.496 305.216 236.189 304.478 236.684C304.638 236.792 304.792 236.91 304.94 237.038H297.946V252.301V252.303H306.291C305.925 253.22 305.287 254 304.478 254.545C304.532 254.583 304.589 254.62 304.643 254.66H290.683V269.822C290.683 269.891 290.679 269.957 290.667 270.02H306.345C305.994 270.984 305.348 271.807 304.516 272.377H300.214V287.641C300.214 287.707 300.207 287.773 300.197 287.836H306.361C306.022 288.796 305.393 289.616 304.577 290.194H291.732V305.726H306.35C306.003 306.69 305.362 307.51 304.535 308.083H299.636V326.809H297.279V308.083H282.072C282.072 308.104 282.075 308.123 282.075 308.142V326.809H279.718V308.142C279.718 308.123 279.718 308.104 279.718 308.083H268.092C267.941 308.153 267.776 308.191 267.601 308.191C267.424 308.191 267.259 308.153 267.109 308.083H252.006V326.809H249.648V308.083H245.528V326.809H243.171V308.083H224.909C224.082 307.51 223.441 306.69 223.094 305.726H239.359V290.194H224.867C224.053 289.616 223.422 288.796 223.082 287.836H229.07V272.377H224.93C224.096 271.807 223.45 270.984 223.099 270.02H237.57V254.66H224.801C224.857 254.62 224.911 254.583 224.968 254.545C224.157 254 223.521 253.22 223.153 252.303H228.308V237.038H224.506C224.652 236.91 224.805 236.792 224.968 236.684C224.228 236.189 223.634 235.496 223.254 234.68H234.091V217.998H236.448V234.68H238.862V217.998H241.219V234.68H262.868V217.998H265.225V234.68H286.874V217.998H289.231V234.68ZM241.716 290.194V305.726H266.423V290.194H241.716ZM268.78 290.194V305.726H284.708V290.194H268.78ZM287.065 290.194V305.726H289.375V290.194H287.065ZM231.427 272.377V287.836H250.497V272.377H231.427ZM275.979 272.377H252.854V287.836H276.043C276.002 287.716 275.979 287.586 275.979 287.452V272.377ZM297.857 272.377H278.336V287.452C278.336 287.586 278.315 287.716 278.273 287.836H297.871C297.861 287.773 297.857 287.707 297.857 287.641V272.377ZM239.927 254.66V270.02H258.04V254.66H239.927ZM260.398 254.66V270.02H263.184V254.66H260.398ZM288.326 254.66H265.541V270.02H276.795C276.908 269.983 277.03 269.964 277.158 269.964C277.285 269.964 277.407 269.983 277.523 270.02H288.345C288.333 269.957 288.326 269.891 288.326 269.822V254.66ZM230.666 237.038V252.303H251.423V237.038H230.666ZM253.781 237.038V252.303H272.549V237.038H253.781ZM274.906 237.038V252.303H278.06V237.038H274.906ZM295.589 237.038H280.418V252.303H295.589V252.301V237.038Z" fill="#FDA425"/>
<path fill-rule="evenodd" clip-rule="evenodd" d="M306.686 166.88H329.393C368.46 166.88 400.179 203.709 400.179 249.072C400.179 290.928 373.219 326.166 338.358 331.265C335.435 331.694 306.839 331.265 306.839 331.265C267.773 331.265 236.053 294.435 236.053 249.072C236.053 203.768 267.69 166.974 306.686 166.88Z" fill="#FDA425"/>
<path d="M306.838 331.265C345.931 331.265 377.622 294.466 377.622 249.073C377.622 203.679 345.931 166.88 306.838 166.88C267.745 166.88 236.053 203.679 236.053 249.073C236.053 294.466 267.745 331.265 306.838 331.265Z" fill="#FFCD80"/>
<path fill-rule="evenodd" clip-rule="evenodd" d="M307.093 200.232L304.648 200.096L304.704 196.449L308.968 196.687C309.978 196.743 310.78 197.605 310.765 198.612L310.67 204.78C314.4 205.156 317.972 205.956 321.381 207.176C325.737 208.734 329.833 210.979 333.665 213.907C334.1 214.236 334.37 214.734 334.416 215.267C334.457 215.8 334.268 216.316 333.891 216.681L325.544 224.77C324.915 225.379 323.923 225.425 323.194 224.877C319.414 222.041 315.165 220.205 310.447 219.364L310.131 239.918C327.681 244.634 336.011 253.542 335.579 266.153C335.371 273.005 332.733 278.544 327.692 282.751C323.085 286.744 316.984 289.141 309.365 289.881L309.203 300.479C309.187 301.485 308.36 302.254 307.35 302.197L303.164 301.963L303.22 298.32L305.586 298.452L305.745 288.084C305.759 287.161 306.459 286.424 307.378 286.366C314.871 285.88 320.836 283.768 325.27 279.929C329.543 276.361 331.759 271.68 331.935 265.887C332.324 254.541 324.152 247.112 307.915 243.081C307.059 242.866 306.451 242.079 306.464 241.207L306.833 217.158C306.841 216.655 307.058 216.188 307.429 215.862C307.8 215.539 308.296 215.387 308.798 215.451C314.437 216.12 319.511 217.995 324.014 221.066L329.764 215.495C326.768 213.432 323.61 211.801 320.278 210.613C316.641 209.31 312.81 208.534 308.776 208.274C307.776 208.21 306.983 207.351 306.999 206.349L307.093 200.232ZM309.591 275.133C312.253 274.479 314.207 273.457 315.397 271.983C316.139 271.03 316.688 269.942 317.043 268.721L320.546 269.888C320.057 271.538 319.307 273.009 318.285 274.324C316.334 276.739 312.964 278.422 308.084 279.183C307.546 279.266 306.987 279.102 306.563 278.731C306.143 278.361 305.903 277.825 305.911 277.275L306.109 264.386L309.753 264.59L309.591 275.133ZM290.438 222.451C291.103 220.838 291.958 219.513 292.985 218.467C293.01 218.441 293.039 218.415 293.064 218.389C295.376 216.315 298.103 215.196 301.236 215.032C301.749 215.006 302.263 215.202 302.643 215.567C303.024 215.935 303.236 216.442 303.228 216.957L303.066 227.512L299.421 227.308L299.549 218.986C298.088 219.364 296.774 220.075 295.6 221.117C294.871 221.871 294.28 222.833 293.803 223.988C293.793 224.018 293.778 224.049 293.763 224.079C293.193 225.272 292.916 226.742 292.89 228.468L289.246 228.265C289.281 225.978 289.691 224.043 290.438 222.451Z" fill="#FDA31F"/>
<path fill-rule="evenodd" clip-rule="evenodd" d="M291.852 236.06C290.088 233.91 289.205 231.318 289.251 228.267L292.896 228.471C292.864 230.564 293.427 232.35 294.64 233.822L294.683 233.875C295.631 235.114 297.173 236.136 299.279 237.018L299.427 227.312L303.071 227.516L302.886 239.685C302.877 240.25 302.605 240.769 302.151 241.091C301.702 241.409 301.115 241.497 300.571 241.322C296.363 239.971 293.485 238.168 291.852 236.06Z" fill="#FDA31F"/>
<path fill-rule="evenodd" clip-rule="evenodd" d="M309.877 255.865L309.743 264.59L306.099 264.386L306.267 253.448C306.275 252.915 306.517 252.421 306.927 252.097C307.342 251.773 307.881 251.651 308.407 251.766C313.482 252.881 316.853 254.711 318.634 257.006L318.672 257.063C320.403 259.469 321.255 262.184 321.209 265.215C321.183 266.91 320.954 268.469 320.536 269.888L317.034 268.721C317.368 267.594 317.544 266.356 317.564 265.011C317.598 262.833 317.002 260.881 315.769 259.151C314.648 257.723 312.667 256.669 309.877 255.865Z" fill="#FDA31F"/>
<path fill-rule="evenodd" clip-rule="evenodd" d="M299.029 253.142C282.158 248.428 274.244 239.765 274.815 227.641C275.074 220.328 277.508 214.736 282.007 210.814C286.124 207.227 292.032 205.034 299.777 204.344L299.874 198.004C299.89 196.998 300.717 196.227 301.722 196.283L304.708 196.45L304.652 200.097L303.491 200.032L303.397 206.149C303.383 207.076 302.678 207.817 301.754 207.871C294.154 208.331 288.374 210.199 284.459 213.611C280.648 216.935 278.681 221.719 278.458 227.943C277.945 238.802 285.716 245.983 301.26 250.003C302.106 250.222 302.71 251.004 302.696 251.869L302.31 277.075C302.302 277.59 302.075 278.064 301.694 278.39C301.308 278.716 300.798 278.855 300.287 278.779C295.732 278.096 291.884 276.859 288.747 275.096C285.985 273.694 283.52 272.008 281.349 270.034L274.277 275.527C277.612 278.108 281.318 280.335 285.381 282.212C290.123 284.349 295.119 285.596 300.372 285.96C301.372 286.031 302.16 286.886 302.145 287.884L301.986 298.252L303.225 298.321L303.169 301.964L300.105 301.793C299.1 301.737 298.298 300.877 298.313 299.872L298.473 289.445C293.423 288.913 288.599 287.606 283.987 285.527C278.833 283.149 274.244 280.248 270.199 276.828C269.775 276.469 269.525 275.936 269.523 275.386C269.517 274.836 269.764 274.323 270.189 273.992L280.265 266.167C280.977 265.61 282.02 265.696 282.684 266.369C284.853 268.561 287.403 270.392 290.32 271.869L290.397 271.909C292.721 273.22 295.489 274.186 298.697 274.822L299.029 253.142Z" fill="#FDA31F"/>
<path fill-rule="evenodd" clip-rule="evenodd" d="M303.425 183.131C331.977 183.131 354.91 212.825 354.91 249.16C354.91 285.494 331.977 315.188 303.425 315.188C302.384 315.188 301.538 316.032 301.538 317.073C301.538 318.114 302.384 318.961 303.425 318.961C333.784 318.961 358.68 287.792 358.68 249.16C358.68 210.526 333.784 179.36 303.425 179.36C302.384 179.36 301.538 180.204 301.538 181.245C301.538 182.286 302.384 183.131 303.425 183.131Z" fill="#FDA425"/>
<path fill-rule="evenodd" clip-rule="evenodd" d="M303.416 315.188C274.862 315.188 251.932 285.494 251.932 249.16C251.932 212.825 274.862 183.131 303.416 183.131C304.457 183.131 305.301 182.286 305.301 181.245C305.301 180.204 304.457 179.36 303.416 179.36C273.057 179.36 248.16 210.526 248.16 249.16C248.16 287.792 273.057 318.961 303.416 318.961C304.457 318.961 305.301 318.114 305.301 317.073C305.301 316.032 304.457 315.188 303.416 315.188Z" fill="#FDA425"/>
<path fill-rule="evenodd" clip-rule="evenodd" d="M358.656 324.505H331.646C330.607 324.505 329.76 323.659 329.76 322.619C329.76 321.577 330.607 320.733 331.646 320.733H364.089C364.308 320.733 364.518 320.771 364.714 320.839C362.753 322.171 360.732 323.395 358.656 324.505ZM389.47 292.75C388.786 294.03 388.077 295.289 387.336 296.522H361.4C360.358 296.522 359.514 295.678 359.514 294.636C359.514 293.594 360.358 292.75 361.4 292.75H389.47ZM394.587 281.238C394.125 282.513 393.635 283.769 393.123 285.009H364.089C363.047 285.009 362.203 284.165 362.203 283.123C362.203 282.084 363.047 281.238 364.089 281.238H394.587ZM399.983 242.958C400.063 244.21 400.117 245.466 400.148 246.73H374.249C373.207 246.73 372.363 245.886 372.363 244.844C372.363 243.804 373.207 242.958 374.249 242.958H399.983ZM395.862 220.758C396.254 222.002 396.624 223.261 396.966 224.529H368.749C367.71 224.529 366.864 223.685 366.864 222.643C366.864 221.604 367.71 220.758 368.749 220.758H395.862ZM391.992 210.68C392.555 211.92 393.095 213.177 393.604 214.452H367.733C366.694 214.452 365.848 213.608 365.848 212.566C365.848 211.527 366.694 210.68 367.733 210.68H391.992ZM366.904 179.36C368.53 180.543 370.112 181.799 371.649 183.131H341.806C340.766 183.131 339.92 182.285 339.92 181.245C339.92 180.204 340.766 179.36 341.806 179.36H366.904Z" fill="#FFCD80"/>
<path fill-rule="evenodd" clip-rule="evenodd" d="M244.216 30.6971C245.884 24.9425 250.639 8.49358 254.069 1.14322L273.818 11.857C273.818 11.857 265.31 42.5977 263.475 51.4131L240.506 45.951C241.203 41.1477 242.537 36.4865 244.216 30.6971Z" fill="#82B5B2"/>
<path d="M254.692 36.9936C258.473 36.9936 261.538 33.7857 261.538 29.8286C261.538 25.8715 258.473 22.6637 254.692 22.6637C250.911 22.6637 247.845 25.8715 247.845 29.8286C247.845 33.7857 250.911 36.9936 254.692 36.9936Z" fill="#A8CFCC" fill-opacity="0.63"/>
<path fill-rule="evenodd" clip-rule="evenodd" d="M249.796 38.6404C250.911 35.5324 257.132 19.4114 260.97 14.5665L278.845 24.6126C278.845 24.6126 269.211 50.2114 267.014 57.5823L245.841 51.8219C246.755 47.7908 248.052 43.5013 249.796 38.6404Z" fill="#A8CFCC"/>
<path d="M262.199 44.3242C265.98 44.3242 269.045 41.1164 269.045 37.1593C269.045 33.2022 265.98 29.9944 262.199 29.9944C258.418 29.9944 255.353 33.2022 255.353 37.1593C255.353 41.1164 258.418 44.3242 262.199 44.3242Z" fill="#82B5B2"/>
<path d="M306.419 39.9909C314.758 39.9909 321.519 33.2304 321.519 24.8908C321.519 16.5513 314.758 9.79077 306.419 9.79077C298.079 9.79077 291.319 16.5513 291.319 24.8908C291.319 33.2304 298.079 39.9909 306.419 39.9909Z" fill="#E86135"/>
<path fill-rule="evenodd" clip-rule="evenodd" d="M296.35 13.6199C299.021 11.2388 302.54 9.79077 306.394 9.79077C314.729 9.79077 321.495 16.557 321.495 24.8908C321.495 27.7502 320.698 30.4252 319.317 32.7049C308.103 27.6672 309.746 15.513 309.746 15.513C303.582 17.5268 298.978 15.4873 296.35 13.6199Z" fill="black"/>
<path fill-rule="evenodd" clip-rule="evenodd" d="M241.702 216.804C241.702 216.804 237.287 208.261 241.702 201.861L233.864 188.09C233.864 188.09 230.055 185.65 225.729 182.878C215.949 176.61 210.338 165.534 211.072 153.943C211.128 153.059 211.23 152.25 211.383 151.541C206.885 147.298 203.17 137.773 204.537 128.66C204.537 128.659 204.537 128.659 204.537 128.659C206.44 115.966 216.984 106.348 229.798 105.618C250.419 104.448 285.808 103.649 307.566 109.888L302.672 97.7056C302.672 97.7056 267.855 110.155 259.037 81.5656C239.05 89.6363 216.793 95.536 194.785 98.7285C185.585 100.067 176.507 95.6068 171.946 87.5047C171.937 87.5103 171.937 87.5103 171.937 87.5103C168.078 80.6573 169.311 72.0663 174.94 66.574C180.599 61.1134 190.252 54.0497 206.737 45.9228C206.737 45.9228 223.249 37.1911 232.919 32.078C237.239 29.7938 242.362 29.5949 246.845 31.5375C256.371 35.6631 272.108 42.481 272.108 42.481L273.946 37.8403C284.875 39.6601 295.612 42.9706 306.139 47.0675C317.32 51.4324 325.983 60.5366 329.785 71.9181C339.148 99.9457 356.827 153.76 359.147 167.24H365.775C369.5 167.24 372.727 169.824 373.54 173.459C374.174 176.299 374.787 179.041 374.787 179.041C374.787 179.041 379.009 183.762 380.244 188.09C380.746 189.853 377.934 191.909 374.787 188.606C373.856 187.628 364.814 180.493 360.752 180.047C357.645 179.705 354.897 179.349 352.334 179.036C344.468 178.072 337.486 173.532 333.41 166.731C330.685 162.186 328.18 158.004 328.18 158.004C328.18 158.004 319.684 171.629 296.364 169.171L299.987 216.269C299.987 216.269 295.334 215.168 293.778 207.563C293.778 207.563 267.497 204.063 252.528 197.724C252.528 197.724 246.624 203.587 241.702 216.804Z" fill="url(#paint2_linear)"/>
<path fill-rule="evenodd" clip-rule="evenodd" d="M359.028 166.565C359.073 166.801 359.113 167.025 359.151 167.239H362.288C363.806 168.305 366.114 169.979 368.615 171.973L369.419 171.068C369.765 170.679 370.362 170.643 370.751 170.99C371.14 171.334 371.175 171.93 370.828 172.319L370.081 173.161C371.5 174.332 372.943 175.586 374.308 176.874L374.791 179.04L359.429 167.56C359.092 167.338 358.943 166.935 359.028 166.565Z" fill="#D7441E"/>
<path fill-rule="evenodd" clip-rule="evenodd" d="M269.387 202.97L282.444 165.9C282.661 165.285 283.335 164.962 283.948 165.179C284.561 165.396 284.884 166.068 284.669 166.683L271.695 203.512C270.929 203.338 270.16 203.156 269.387 202.97ZM233.88 188.089C233.88 188.089 238.934 190.807 243.283 193.056C248.794 195.91 254.567 198.579 252.544 197.723C252.544 197.723 251.981 198.284 251.057 199.446C246.1 197.226 240.393 194.232 236.018 191.846L233.88 188.089ZM209.6 149.505C213.383 131.357 227.527 121.046 243.981 115.311C267.237 107.204 295.083 108.303 303.793 108.902C305.073 109.203 306.933 109.602 308.131 109.944C308.199 110.114 308.725 110.439 308.706 110.633C308.637 111.28 309.536 111.753 308.887 111.687C308.887 111.687 272.722 109.402 244.756 117.537C227.393 122.588 215.389 135.171 211.399 151.54C210.781 150.957 210.178 150.273 209.6 149.505Z" fill="#D7441E"/>
<path fill-rule="evenodd" clip-rule="evenodd" d="M296.563 171.507C292.218 170.839 286.707 169.031 280.894 166.667C263.861 159.746 244.142 148.163 244.142 148.163C243.581 147.834 243.395 147.111 243.723 146.55C244.053 145.989 244.776 145.802 245.337 146.131C245.337 146.131 264.888 157.62 281.78 164.484C287.876 166.962 296.881 169.229 296.353 169.175L296.563 171.507Z" fill="#8A2208"/>
<path fill-rule="evenodd" clip-rule="evenodd" d="M306.222 106.539L302.672 97.7056C302.672 97.7056 267.855 110.155 259.037 81.5656C239.05 89.6363 216.793 95.536 194.785 98.7285C185.585 100.067 176.507 95.6068 171.946 87.5047C171.937 87.5103 171.937 87.5103 171.937 87.5103C168.078 80.6573 169.311 72.0663 174.94 66.574C180.599 61.1134 190.252 54.0497 206.737 45.9228C206.737 45.9228 223.249 37.1911 232.919 32.078C237.239 29.7938 242.362 29.5949 246.845 31.5375C256.371 35.6631 272.108 42.481 272.108 42.481L273.946 37.8403C284.875 39.6601 295.612 42.9706 306.139 47.0675C317.32 51.4324 325.983 60.5366 329.785 71.9181C335.409 88.7514 344.032 114.886 350.524 135.997L323.387 144.272C317.501 131.928 311.533 119.684 306.316 106.555L306.222 106.539Z" fill="#D7441E"/>
<path fill-rule="evenodd" clip-rule="evenodd" d="M297.622 99.0857C296.759 94.7758 296.556 90.2522 296.636 85.6376C296.639 85.3838 296.822 85.1681 297.072 85.1214C297.322 85.0745 297.57 85.2093 297.666 85.4441C299.967 91.0522 305.601 104.778 305.601 104.778H305.514L302.671 97.702C302.671 97.702 300.717 98.4003 297.622 99.0857ZM223.015 71.1981L194.046 87.5166C193.478 87.8358 193.278 88.5552 193.596 89.1219C193.917 89.6886 194.636 89.8897 195.204 89.5702L224.172 73.252C224.74 72.9328 224.941 72.2133 224.62 71.6467C224.302 71.0797 223.583 70.8789 223.015 71.1981ZM252.935 83.9317C254.031 76.0036 256.638 70.4442 258.454 67.3774C258.569 67.2082 258.793 67.15 258.979 67.2407C259.163 67.3312 259.255 67.5434 259.191 67.7398C257.317 74.4765 258.927 81.1334 259.031 81.5422L259.036 81.562C257.025 82.374 254.991 83.1639 252.935 83.9317Z" fill="#8A2208"/>
<path fill-rule="evenodd" clip-rule="evenodd" d="M207.989 45.2536L232.905 32.078C237.225 29.7938 242.348 29.5949 246.831 31.5375L271.408 42.1842C271.573 42.2941 271.724 42.3931 271.858 42.481C275.955 45.1657 272.719 47.8199 271.573 47.4411C274.371 48.7709 274.277 50.9805 273.617 51.938C272.53 53.5176 268.641 52.9413 268.641 52.9413C269.722 53.3272 270.715 55.4386 269.876 57.0047C268.527 59.5225 264.838 57.9929 264.838 57.9929C265.508 61.504 261.878 61.5155 257.448 60.5776C254.019 59.8513 252.446 59.0829 249.528 58.3549C244.811 70.9327 230.727 69.48 230.727 69.48L221.446 74.7413L207.989 45.2536Z" fill="url(#paint3_linear)"/>
<path fill-rule="evenodd" clip-rule="evenodd" d="M264.848 58.0654L249.076 51.9429C248.591 51.7546 248.35 51.2077 248.539 50.7226C248.727 50.2375 249.274 49.9965 249.76 50.1849L269.278 57.762C267.67 59.1679 264.834 57.9923 264.834 57.9923C264.839 58.0171 264.844 58.0414 264.848 58.0654ZM268.875 53.0546L250.943 46.0932C250.457 45.9048 250.217 45.3582 250.406 44.8731C250.594 44.388 251.141 44.147 251.627 44.3352L272.179 52.3144C272.368 52.3875 272.519 52.5145 272.623 52.6713C271.067 53.3009 268.637 52.9407 268.637 52.9407C268.717 52.9695 268.797 53.0077 268.875 53.0546ZM271.76 47.475L253.093 40.2281C252.607 40.0398 252.364 39.4929 252.553 39.0078C252.742 38.5227 253.288 38.2817 253.774 38.4701L273.641 46.1828C273.228 46.9955 272.34 47.5094 271.76 47.475Z" fill="#D7441E"/>
<path fill-rule="evenodd" clip-rule="evenodd" d="M215.275 318.823C213.941 317.925 213.059 316.4 213.059 314.672V304.675C213.059 301.917 215.298 299.677 218.059 299.677H293.964C296.722 299.677 298.962 301.917 298.962 304.675V314.672C298.962 316.4 298.083 317.925 296.746 318.823C298.083 319.721 298.962 321.246 298.962 322.974V332.971C298.962 335.731 296.722 337.971 293.964 337.971H218.059C215.298 337.971 213.059 335.731 213.059 332.971V322.974C213.059 321.246 213.941 319.721 215.275 318.823Z" fill="#FFDBA3"/>
<path fill-rule="evenodd" clip-rule="evenodd" d="M276.271 316.798H298.484C298.097 317.621 297.491 318.321 296.742 318.823C296.895 318.927 297.041 319.037 297.182 319.155H289.986V337.971H287.628V319.155H267.924V337.971H265.567V319.155H262.559V337.971H260.202V319.155H229.765V337.971H227.408V319.155H214.832C214.971 319.037 215.117 318.927 215.27 318.823C214.523 318.321 213.917 317.621 213.531 316.798H241.122V299.677H243.48V316.798H246.487V299.677H248.845V316.798H273.914V299.677H276.271V316.798Z" fill="#FDA425"/>
<defs>
<linearGradient id="paint0_linear" x1="78.7383" y1="238.789" x2="78.26" y2="373.526" gradientUnits="userSpaceOnUse">
<stop stop-color="#A8CFCC"/>
<stop offset="1" stop-color="#59A09B"/>
</linearGradient>
<linearGradient id="paint1_linear" x1="94.172" y1="133.211" x2="100.398" y2="252.828" gradientUnits="userSpaceOnUse">
<stop stop-color="#82B5B2"/>
<stop offset="0.45" stop-color="#A7C6C1"/>
<stop offset="1" stop-color="#FFF0E6"/>
</linearGradient>
<linearGradient id="paint2_linear" x1="314.974" y1="157.689" x2="182.004" y2="39.8611" gradientUnits="userSpaceOnUse">
<stop stop-color="#E86135"/>
<stop offset="0.48" stop-color="#EE734F"/>
<stop offset="1" stop-color="#FFA396"/>
</linearGradient>
<linearGradient id="paint3_linear" x1="241.004" y1="56.3843" x2="250.543" y2="-6.24944" gradientUnits="userSpaceOnUse">
<stop stop-color="#E86135"/>
<stop offset="1" stop-color="#FFA396"/>
</linearGradient>
</defs>
</svg>
