<svg width="580" height="371" viewBox="0 0 580 371" fill="none" xmlns="http://www.w3.org/2000/svg">
<path fill-rule="evenodd" clip-rule="evenodd" d="M211.372 253.96C211.372 246.823 205.575 241.029 198.439 241.029H13.6992C6.56132 241.029 0.766296 246.823 0.766296 253.96V356.479C0.766296 363.616 6.56132 369.41 13.6992 369.41H198.439C205.575 369.41 211.372 363.616 211.372 356.479V253.96Z" fill="#8ABBB8"/>
<path fill-rule="evenodd" clip-rule="evenodd" d="M37.29 344.39H15.5559V359.756H37.29V344.39ZM115.962 315.677H15.5057V337.478H115.962V315.677ZM195.918 315.677H144.355V337.478H195.918V315.677Z" fill="white"/>
<path d="M211.371 276.831H0.766296V306.994H211.371V276.831Z" fill="black"/>
<path fill-rule="evenodd" clip-rule="evenodd" d="M33.8689 329.196C33.7848 327.813 33.9405 326.284 34.2485 324.859C34.7252 322.655 35.5861 320.71 36.3884 319.849C37.0827 319.105 37.8421 318.951 38.4748 319.165C39.3798 319.47 39.9148 320.279 40.0134 321.431C40.1551 323.082 39.3097 325.586 38.9969 326.302C38.2718 327.955 37.3514 329.193 36.2918 330.168C36.4429 330.884 36.701 331.497 37.1848 331.862C37.6981 332.25 38.4335 332.281 39.434 331.99C39.9644 331.836 41.0553 331.152 42.114 330.308C41.9358 329.241 42.124 328.104 42.542 327.257C43.1861 325.954 44.3273 325.378 45.3874 325.734C46.1068 325.976 46.498 326.393 46.7002 326.843C46.9642 327.434 46.9126 328.221 46.4179 329.07C46.0863 329.641 45.5331 330.282 44.8793 330.909C45.2055 331.172 45.6854 331.3 46.3318 331.289C47.133 331.274 48.348 330.658 49.6828 329.951C52.0571 328.697 54.7043 327.077 56.2546 326.658C57.5994 326.293 58.4599 326.735 58.8163 327.496C59.0946 328.089 59.3547 328.52 59.6233 328.805C59.7527 328.945 59.8645 329.042 59.9942 329.067C60.1679 329.099 60.3358 329.016 60.5192 328.931C60.7558 328.816 60.9974 328.665 61.2494 328.497C62.9982 327.337 65.1094 325.714 67.9933 326.695C69.1843 327.1 69.509 328.201 69.2992 329.561C69.2396 329.948 69.1446 330.356 69.0859 330.733C69.0771 330.792 69.0697 330.864 69.0648 330.932C69.2045 330.924 69.3585 330.898 69.5224 330.867C69.9647 330.787 70.4526 330.647 70.9456 330.493C72.1155 330.134 73.3117 329.732 74.13 329.68C82.8094 329.116 91.5469 329.261 100.216 328.52C100.844 328.466 101.396 328.933 101.45 329.561C101.504 330.188 101.038 330.738 100.411 330.792C91.7257 331.537 82.9727 331.391 74.2777 331.956C73.4323 332.01 72.13 332.543 70.9461 332.871C69.8752 333.171 68.8729 333.296 68.1874 333.119C66.975 332.803 66.6123 331.733 66.8416 330.322C66.8949 329.994 66.9727 329.646 67.0292 329.31C67.0546 329.159 67.0668 328.939 67.072 328.796C66.0244 328.503 65.1464 328.782 64.3748 329.193C63.6936 329.558 63.082 330.02 62.5106 330.399C61.4735 331.086 60.4941 331.48 59.5739 331.309C58.7405 331.152 57.8109 330.53 56.9415 328.851C56.791 328.885 56.5937 328.936 56.432 328.996C55.8928 329.199 55.2581 329.512 54.5726 329.874C52.3083 331.072 49.5425 332.766 47.6808 333.333C47.1924 333.484 46.751 333.561 46.3751 333.57C44.8451 333.598 43.8072 333.102 43.1246 332.392C41.8985 333.31 40.6769 334.006 40.0687 334.18C38.1657 334.733 36.7885 334.419 35.8125 333.684C35.1606 333.193 34.6719 332.483 34.3463 331.616C34.0226 331.813 33.691 331.999 33.3528 332.173C31.2571 333.25 28.8861 333.929 26.5722 335.092C26.0099 335.375 25.3239 335.147 25.0413 334.585C24.7588 334.02 24.986 333.336 25.5486 333.054C27.4163 332.116 29.3201 331.488 31.09 330.718C32.0723 330.291 33.0118 329.817 33.8689 329.196ZM37.7503 321.822C37.4335 322.332 37.1352 323.037 36.8786 323.838C36.7269 324.311 36.5912 324.819 36.4783 325.341C36.3862 325.768 36.3083 326.205 36.2499 326.644C36.4871 326.262 36.7069 325.842 36.908 325.383C37.1207 324.899 37.663 323.373 37.7417 322.124C37.7483 322.022 37.7514 321.919 37.7503 321.822Z" fill="black"/>
<path d="M579.812 198.617H265.124V369.207H579.812V198.617Z" fill="#E4E4E6"/>
<path fill-rule="evenodd" clip-rule="evenodd" d="M481.089 350.067C482.252 345.816 484.111 341.554 486.69 337.987C487.205 337.275 488.074 335.894 489.072 334.983C490.003 334.134 491.061 333.696 492.084 333.922C493.264 334.181 493.871 335.045 493.998 336.27C494.185 338.087 493.037 340.929 492.592 341.731C490.411 345.674 486.857 348.882 483.081 351.474C482.916 352.171 482.807 352.897 482.857 353.569C482.921 354.428 483.3 355.175 484.353 355.469C486.506 356.066 488.895 355.446 491.18 354.299C492.057 353.858 492.915 353.34 493.739 352.77C493.759 352.414 493.794 352.086 493.829 351.822C494.302 348.048 496.44 344.506 499.009 341.776C499.412 341.348 500.744 339.827 501.834 339.374C502.768 338.985 503.606 339.12 504.219 339.901C504.786 340.626 504.921 341.651 504.652 342.799C504.201 344.728 502.593 347.103 501.924 348.026C500.585 349.871 498.486 352.059 496.047 353.91C496.067 354.03 496.097 354.144 496.139 354.247C496.164 354.306 496.179 354.371 496.238 354.393C497.274 354.784 498.392 354.351 499.487 353.704C501.54 352.492 503.465 350.411 504.669 349.298C505.192 348.815 506.053 347.914 506.959 347.369C507.836 346.841 508.762 346.645 509.586 346.936C510.596 347.294 510.972 347.991 510.974 348.9C510.974 349.427 510.785 350.087 510.507 350.784C510.258 351.404 509.937 352.068 509.752 352.688C509.693 352.887 509.645 353.077 509.638 353.256C509.63 353.38 509.678 353.48 509.822 353.537C510.464 353.791 511.022 353.622 511.537 353.281C512.281 352.785 512.951 351.986 513.618 351.18C514.589 350.007 515.555 348.818 516.59 348.145C517.501 347.556 518.467 347.314 519.522 347.575C521.033 347.951 521.315 349.206 520.916 350.866C520.792 351.396 520.605 351.976 520.518 352.519C520.468 352.843 520.354 353.176 520.677 353.321C521.178 353.542 521.651 353.438 522.114 353.231C522.554 353.034 522.987 352.743 523.418 352.439C524.212 351.882 525.001 351.274 525.805 350.884C526.48 350.555 527.169 350.366 527.874 350.388C528.474 350.408 528.867 350.597 529.141 350.824C529.477 351.103 529.673 351.471 529.751 351.917C529.793 352.151 529.795 352.417 529.775 352.696C529.765 352.843 529.756 353.072 529.748 353.236C532.078 353.54 534.682 352.81 537.009 352.656C540.974 352.39 544.979 352.624 548.927 352.268C549.555 352.21 550.11 352.673 550.164 353.301C550.222 353.928 549.759 354.483 549.131 354.54C545.166 354.899 541.144 354.665 537.161 354.931C534.629 355.1 531.784 355.85 529.265 355.471C528.688 355.387 528.307 355.163 528.04 354.901C527.739 354.605 527.565 354.239 527.493 353.821C527.443 353.535 527.448 353.214 527.47 352.892C527.475 352.835 527.48 352.763 527.485 352.691C527.037 352.765 526.607 353.017 526.171 353.296C525.422 353.776 524.683 354.376 523.928 354.839C522.597 355.658 521.22 356.056 519.751 355.404C518.691 354.934 518.278 354.137 518.211 353.179C518.163 352.526 518.325 351.765 518.519 351.028C518.609 350.687 518.703 350.353 518.763 350.045C518.778 349.963 518.791 349.851 518.796 349.759C518.313 349.711 517.889 349.98 517.469 350.329C516.747 350.926 516.072 351.795 515.375 352.634C514.556 353.624 513.71 354.575 512.797 355.182C511.654 355.939 510.407 356.22 508.988 355.66C507.709 355.158 507.308 354.254 507.358 353.161C507.39 352.439 507.696 351.583 508.047 350.747C508.216 350.346 508.393 349.948 508.525 349.577C508.577 349.43 508.625 349.231 508.655 349.081C508.58 349.099 508.503 349.136 508.426 349.171C508.216 349.261 508.01 349.395 507.811 349.542C507.171 350.01 506.594 350.625 506.215 350.976C504.926 352.166 502.845 354.369 500.647 355.668C498.904 356.698 497.08 357.151 495.432 356.527C494.812 356.293 494.374 355.845 494.098 355.265C493.478 355.655 492.846 356.016 492.206 356.337C489.378 357.756 486.404 358.406 483.743 357.667C481.301 356.987 480.542 355.133 480.579 353.089C480.325 353.243 480.074 353.393 479.822 353.542C478.184 354.508 476.402 355.718 474.568 356.29C474.582 356.285 474.63 356.268 474.63 356.268C474.63 356.268 474.338 356.367 474.204 356.38C474 356.402 473.826 356.372 473.694 356.328C473.435 356.24 473.246 356.086 473.111 355.897C472.748 355.384 472.87 354.672 473.383 354.309C473.544 354.194 473.726 354.127 473.908 354.105C475.573 353.582 477.174 352.454 478.662 351.578C479.471 351.103 480.283 350.6 481.089 350.067ZM474.921 354.51L474.936 354.53L474.933 354.525L474.921 354.51ZM474.879 354.463L474.896 354.481L474.891 354.476L474.879 354.463ZM474.836 354.421L474.854 354.436L474.846 354.428L474.836 354.421ZM474.794 354.381L474.801 354.388L474.796 354.383L474.794 354.381ZM502.509 341.624C502.292 341.766 501.991 341.972 501.804 342.147C501.297 342.619 500.863 343.135 500.672 343.339C498.743 345.39 497.06 347.944 496.355 350.714C497.874 349.368 499.168 347.939 500.077 346.687C500.572 346.002 501.682 344.414 502.232 342.928C502.382 342.517 502.494 342.119 502.506 341.761C502.509 341.713 502.511 341.669 502.509 341.624ZM484.171 347.849C486.742 345.811 489.05 343.426 490.595 340.628C490.894 340.093 491.621 338.395 491.728 337.029C491.745 336.812 491.745 336.608 491.718 336.424C491.701 336.304 491.711 336.175 491.594 336.15C491.444 336.115 491.302 336.182 491.161 336.26C490.971 336.362 490.79 336.506 490.61 336.668C489.734 337.469 488.992 338.699 488.539 339.324C486.687 341.883 485.239 344.825 484.171 347.849Z" fill="black"/>
<path fill-rule="evenodd" clip-rule="evenodd" d="M440.797 315.112V312.396C440.797 311.358 441.564 310.514 442.507 310.514C443.451 310.514 444.218 311.358 444.218 312.396V316.78C444.218 317.818 443.451 318.662 442.507 318.662H442.505C442.268 318.8 441.997 318.875 441.709 318.875H293.043C292.744 318.875 292.461 318.791 292.216 318.643C291.275 318.637 290.514 317.797 290.514 316.762V312.396C290.514 311.358 291.281 310.514 292.225 310.514C293.169 310.514 293.936 311.358 293.936 312.396V315.112H440.797ZM499.837 274.351V270.816C499.837 269.778 500.604 268.935 501.548 268.935C502.492 268.935 503.259 269.778 503.259 270.816V275.201C503.259 275.609 503.142 275.985 502.943 276.292C502.911 277.302 502.158 278.114 501.232 278.114H292.347C292.327 278.114 292.308 278.114 292.288 278.114C292.265 278.114 292.245 278.114 292.225 278.114C291.281 278.114 290.514 277.271 290.514 276.233V271.867C290.514 270.829 291.281 269.985 292.225 269.985C293.169 269.985 293.936 270.829 293.936 271.867V274.351H499.837ZM291.235 238.58L291.358 234.198C291.389 233.16 292.179 232.345 293.123 232.376C294.067 232.411 294.808 233.279 294.78 234.314L294.711 236.761H500.242V234.258C500.242 233.22 501.009 232.376 501.953 232.376C502.897 232.376 503.664 233.22 503.664 234.258V238.642C503.664 239.68 502.897 240.524 501.953 240.524C501.933 240.524 501.91 240.524 501.89 240.524C501.87 240.524 501.851 240.524 501.831 240.524H292.952C292.943 240.524 292.932 240.524 292.923 240.524H292.915C292.744 240.521 292.581 240.489 292.427 240.436C292.159 240.342 291.92 240.179 291.729 239.966L291.72 239.956L291.712 239.947L291.706 239.941C291.518 239.721 291.375 239.455 291.298 239.157C291.255 238.987 291.233 238.805 291.235 238.62V238.608C291.235 238.598 291.235 238.589 291.235 238.58Z" fill="white"/>
<path fill-rule="evenodd" clip-rule="evenodd" d="M548.716 320.705V310.517C548.716 309.573 549.483 308.806 550.427 308.806C551.371 308.806 552.138 309.573 552.138 310.517V322.416C552.138 323.362 551.373 324.127 550.427 324.127H465.626C464.68 324.127 463.916 323.362 463.916 322.416V310.517C463.916 309.573 464.683 308.806 465.626 308.806C466.57 308.806 467.337 309.573 467.337 310.517V320.705H548.716Z" fill="white"/>
<path fill-rule="evenodd" clip-rule="evenodd" d="M467.337 298.249V310.507C467.337 311.451 466.57 312.218 465.626 312.218C464.683 312.218 463.916 311.451 463.916 310.507V296.538C463.916 295.594 464.68 294.827 465.626 294.827H550.427C551.373 294.827 552.138 295.594 552.138 296.538V310.507C552.138 311.451 551.371 312.218 550.427 312.218C549.483 312.218 548.716 311.451 548.716 310.507V298.249H467.337Z" fill="white"/>
<path fill-rule="evenodd" clip-rule="evenodd" d="M473.472 317.054H482.183C483.126 317.054 483.893 316.287 483.893 315.343C483.893 314.399 483.126 313.632 482.183 313.632H473.472C472.528 313.632 471.761 314.399 471.761 315.343C471.761 316.287 472.528 317.054 473.472 317.054ZM503.659 317.054H512.367C513.311 317.054 514.078 316.287 514.078 315.343C514.078 314.399 513.311 313.632 512.367 313.632H503.659C502.715 313.632 501.948 314.399 501.948 315.343C501.948 316.287 502.715 317.054 503.659 317.054ZM488.564 317.054H497.275C498.219 317.054 498.986 316.287 498.986 315.343C498.986 314.399 498.219 313.632 497.275 313.632H488.564C487.62 313.632 486.853 314.399 486.853 315.343C486.853 316.287 487.62 317.054 488.564 317.054ZM518.752 317.054H527.463C528.407 317.054 529.174 316.287 529.174 315.343C529.174 314.399 528.407 313.632 527.463 313.632H518.752C517.808 313.632 517.041 314.399 517.041 315.343C517.041 316.287 517.808 317.054 518.752 317.054ZM533.847 317.054H542.555C543.499 317.054 544.266 316.287 544.266 315.343C544.266 314.399 543.499 313.632 542.555 313.632H533.847C532.903 313.632 532.136 314.399 532.136 315.343C532.136 316.287 532.903 317.054 533.847 317.054Z" fill="white"/>
<path d="M540.289 258.482C553.531 258.482 564.266 247.747 564.266 234.505C564.266 221.263 553.531 210.528 540.289 210.528C527.047 210.528 516.312 221.263 516.312 234.505C516.312 247.747 527.047 258.482 540.289 258.482Z" fill="white"/>
<path fill-rule="evenodd" clip-rule="evenodd" d="M539.491 221.686L539.653 210.56C539.864 210.554 540.075 210.551 540.286 210.551C540.842 210.551 541.39 210.571 541.934 210.608L541.772 221.715C543.813 221.689 545.941 221.521 548.128 221.164C546.69 217.013 544.931 213.437 543.428 210.757C544.412 210.885 545.382 211.073 546.326 211.318C547.694 213.922 549.163 217.124 550.392 220.731C552.85 220.186 555.373 219.396 557.928 218.296C558.464 218.878 558.971 219.488 559.448 220.121C556.616 221.39 553.816 222.296 551.087 222.909C551.256 223.474 551.415 224.044 551.566 224.626C552.396 227.765 552.984 231.127 553.155 234.609L564.261 234.939C564.249 235.709 564.198 236.468 564.115 237.218L553.203 236.893C553.18 240.768 552.607 244.76 551.244 248.74C553.334 249.33 555.459 250.109 557.603 251.11C557.033 251.703 556.434 252.267 555.806 252.8C553.996 252.002 552.202 251.372 550.431 250.879C549.488 253.148 548.27 255.407 546.739 257.625C545.653 257.93 544.535 258.158 543.391 258.307C545.453 255.695 547.018 253.02 548.173 250.323C545.835 249.821 543.554 249.553 541.358 249.464L541.224 258.486C540.914 258.498 540.6 258.506 540.286 258.506C539.836 258.506 539.388 258.492 538.943 258.469L539.077 249.436C536.34 249.476 533.762 249.778 531.404 250.229C532.659 252.812 534.29 255.467 536.366 258.184C535.194 257.993 534.053 257.713 532.947 257.357C531.393 255.102 530.127 252.889 529.112 250.728C527.264 251.175 525.587 251.7 524.122 252.23C523.509 251.668 522.924 251.078 522.374 250.457C524.036 249.821 525.995 249.171 528.196 248.62C526.557 244.54 525.798 240.656 525.656 237.024C525.644 236.704 525.636 236.388 525.633 236.074L516.343 235.798C516.323 235.378 516.312 234.954 516.312 234.529C516.312 234.189 516.317 233.853 516.332 233.517L525.693 233.793C525.952 229.533 527.036 225.667 528.479 222.285C525.502 221.492 523.07 220.563 521.359 219.818C521.846 219.188 522.368 218.587 522.916 218.008C524.564 218.695 526.785 219.505 529.445 220.192C531.376 216.317 533.702 213.2 535.59 211.011C536.725 210.785 537.888 210.64 539.074 210.58C537.267 212.411 534.181 215.921 531.712 220.722C534.062 221.21 536.679 221.578 539.491 221.686ZM550.913 236.824L541.549 236.548L541.393 247.189C543.842 247.283 546.391 247.588 549.006 248.173C550.335 244.36 550.893 240.534 550.913 236.824ZM527.917 236.143C527.92 236.405 527.925 236.67 527.937 236.935C528.071 240.437 528.829 244.175 530.452 248.107C533.089 247.571 536.003 247.206 539.111 247.163L539.271 236.479L527.917 236.143ZM548.838 223.354C546.391 223.773 544.013 223.964 541.738 223.99L541.584 234.266L550.859 234.54C550.691 231.284 550.135 228.142 549.362 225.205C549.197 224.58 549.023 223.962 548.838 223.354ZM530.708 222.827C529.297 226.052 528.231 229.764 527.974 233.862L539.305 234.198L539.456 223.956C536.271 223.836 533.326 223.4 530.708 222.827Z" fill="#E4E4E6"/>
<path fill-rule="evenodd" clip-rule="evenodd" d="M333.924 319.67C334.637 333.876 336.912 345.963 340.744 357.118C343.251 364.489 350.171 369.444 357.955 369.444C357.955 369.453 357.955 369.453 357.955 369.453C364.514 369.453 370.427 365.507 372.942 359.45C377.296 348.988 380.966 336.14 383.592 319.67H333.924Z" fill="#F27F71"/>
<path fill-rule="evenodd" clip-rule="evenodd" d="M334.396 326.349C334.348 325.799 334.302 325.246 334.257 324.687L347.173 324.926C347.173 324.926 350.136 334.806 352.851 343.583C356.472 355.282 359.928 363.055 367.415 366.414C366.703 366.924 365.947 367.378 365.16 367.766C362.756 368.644 359.782 369.448 357.966 369.448C357.966 369.448 357.966 369.448 357.966 369.439C357.918 369.439 357.866 369.439 357.818 369.439C357.533 369.436 357.25 369.428 356.968 369.414L356.877 369.408C356.757 369.399 356.634 369.394 356.515 369.382L356.426 369.377L356.338 369.368L356.247 369.359C356.218 369.357 356.19 369.354 356.158 369.351L356.11 369.345C356.004 369.337 355.902 369.322 355.796 369.311C355.739 369.305 355.682 369.297 355.625 369.291L355.534 369.28C355.388 369.257 355.24 369.237 355.095 369.214L355.006 369.2C354.978 369.194 354.946 369.188 354.918 369.183L354.829 369.168C354.801 369.163 354.772 369.16 354.741 369.154L354.658 369.137C354.561 369.12 354.464 369.103 354.368 369.083C353.891 368.986 353.421 368.872 352.959 368.738C352.805 368.695 352.654 368.649 352.5 368.601C352.3 368.538 352.101 368.47 351.904 368.401C351.83 368.376 351.756 368.347 351.682 368.322L351.516 368.259C350.37 367.823 349.275 367.275 348.246 366.625L348.1 366.531C348.043 366.494 347.986 366.457 347.932 366.42L347.809 366.337L347.664 366.24L347.618 366.209C347.134 365.872 346.666 365.516 346.218 365.134C346.061 365.002 345.907 364.868 345.756 364.732L345.628 364.612L345.5 364.495C345.457 364.455 345.417 364.415 345.374 364.375L345.269 364.273C344.687 363.705 344.142 363.098 343.641 362.456C343.381 362.123 343.13 361.78 342.894 361.43C342.819 361.316 342.745 361.204 342.671 361.09C342.58 360.948 342.491 360.802 342.403 360.657L342.375 360.611L342.346 360.563C342.144 360.224 341.953 359.876 341.77 359.522L341.73 359.442L341.702 359.382C341.459 358.895 341.237 358.396 341.034 357.883L341.003 357.797C340.957 357.677 340.912 357.557 340.869 357.438C340.829 357.329 340.792 357.221 340.755 357.113L340.669 356.865L340.644 356.785L340.587 356.619L340.553 356.522L340.501 356.368L340.467 356.269L340.419 356.12L340.384 356.018L340.333 355.867L340.302 355.767L340.25 355.607L340.219 355.519L340.156 355.319L340.139 355.271L340.056 355.02L340.036 354.951L339.977 354.772L339.948 354.678L339.897 354.521L339.865 354.418L339.817 354.267L339.786 354.164L339.737 354.013L339.706 353.911L339.657 353.754L339.629 353.66L339.572 353.48L339.549 353.409L339.475 353.155L339.458 353.106L339.398 352.904L339.369 352.813L339.321 352.65L339.292 352.55L339.244 352.396L339.215 352.291L339.17 352.14L339.138 352.037L339.093 351.88L339.064 351.781L339.016 351.612L338.99 351.527L338.919 351.279L338.916 351.273L338.845 351.016L338.822 350.934L338.77 350.763L338.745 350.663L338.699 350.506L338.671 350.401L338.628 350.247L338.599 350.141L338.557 349.987L338.528 349.884L338.482 349.719L338.46 349.625L338.403 349.422L338.388 349.368L338.32 349.112L338.3 349.038L338.251 348.852L338.226 348.755L338.183 348.593L338.155 348.487L338.115 348.333L338.089 348.225L338.049 348.071L338.021 347.965L337.981 347.803L337.955 347.703L337.906 347.521L337.889 347.444L337.824 347.181L337.81 347.13L337.758 346.922L337.735 346.828L337.695 346.659L337.67 346.554L337.63 346.397L337.604 346.286L337.567 346.132L337.541 346.021L337.502 345.864L337.479 345.758L337.439 345.585L337.416 345.493L337.359 345.251L337.353 345.228L337.293 344.966L337.273 344.875L337.234 344.703L337.211 344.595L337.174 344.435L337.148 344.324L337.114 344.167L337.088 344.056L337.054 343.899L337.031 343.788L336.994 343.623L336.971 343.52L336.928 343.323L336.914 343.252L336.857 342.99L336.84 342.904L336.8 342.722L336.777 342.613L336.746 342.451L336.72 342.337L336.689 342.18L336.666 342.063L336.635 341.909L336.609 341.792L336.578 341.635L336.555 341.521L336.521 341.347L336.501 341.25L336.449 340.985L336.435 340.908L336.398 340.714L336.375 340.603L336.344 340.441L336.321 340.321L336.293 340.17L336.27 340.044L336.241 339.893L336.218 339.771L336.19 339.617L336.167 339.497L336.139 339.337L336.119 339.22L336.082 339.021L336.067 338.949L336.059 338.895L336.022 338.681L335.999 338.562L335.973 338.405L335.95 338.276L335.925 338.128L335.902 337.997L335.876 337.852L335.853 337.72L335.831 337.575L335.808 337.441L335.782 337.295L335.762 337.164L335.737 337.005L335.717 336.885L335.674 336.62L335.651 336.489L335.628 336.34L335.605 336.201L335.585 336.061L335.563 335.918L335.54 335.781L335.52 335.639L335.497 335.502L335.474 335.357L335.454 335.223L335.431 335.074L335.414 334.943L335.392 334.792L335.374 334.672L335.352 334.524L335.329 334.37L335.312 334.247L335.289 334.091L335.272 333.965L335.249 333.808L335.232 333.683L335.209 333.526L335.195 333.401L335.172 333.241L335.155 333.121L335.132 332.956L335.118 332.844L335.095 332.671L335.086 332.596L335.058 332.397L335.029 332.163L335.024 332.126L335.001 331.938L334.987 331.841L334.967 331.661L334.952 331.556L334.93 331.376L334.918 331.27L334.895 331.091L334.884 330.988L334.861 330.803L334.85 330.712L334.827 330.512L334.821 330.464L334.793 330.235C334.784 330.144 334.773 330.053 334.764 329.962L334.736 329.728L334.733 329.682L334.707 329.471L334.702 329.394L334.679 329.189L334.67 329.109L334.647 328.904L334.639 328.824L334.616 328.613L334.61 328.547L334.587 328.322L334.585 328.299C334.548 327.943 334.513 327.589 334.479 327.23L334.476 327.204L334.453 326.962L334.448 326.914L334.428 326.677L334.422 326.628L334.402 326.386L334.396 326.349Z" fill="#FFC2BA"/>
<path fill-rule="evenodd" clip-rule="evenodd" d="M179.255 320.027C179.968 334.233 182.244 346.32 186.076 357.474C188.582 364.845 195.503 369.801 203.287 369.801C203.287 369.809 203.287 369.809 203.287 369.809C209.845 369.809 215.759 365.863 218.274 359.807C222.628 349.345 226.298 336.497 228.924 320.027H179.255Z" fill="#FFC3BB"/>
<path fill-rule="evenodd" clip-rule="evenodd" d="M179.358 321.892C179.321 321.273 179.287 320.654 179.255 320.027H228.924C228.684 321.521 228.439 322.981 228.185 324.415L220.067 324.281C218.565 329.097 209.469 358.184 205.001 362.861C201.342 366.687 199.44 367.959 197.553 368.874C192.312 367.132 188.032 363.052 186.136 357.648L186.133 357.643L186.11 357.571L186.076 357.474C185.509 355.823 184.975 354.15 184.476 352.453C184.408 352.225 184.342 351.997 184.277 351.766C184.094 351.139 183.92 350.505 183.746 349.867C183.712 349.733 183.675 349.599 183.638 349.462C183.438 348.706 183.242 347.942 183.053 347.172C182.894 346.522 182.737 345.866 182.589 345.208C182.378 344.292 182.178 343.368 181.987 342.433C181.853 341.78 181.725 341.119 181.599 340.454C181.548 340.172 181.494 339.89 181.442 339.605L181.391 339.314C181.317 338.9 181.243 338.484 181.174 338.065C181.046 337.309 180.923 336.545 180.807 335.775L180.761 335.476C180.681 334.957 180.607 334.432 180.533 333.905L180.501 333.671L180.493 333.602C180.236 331.706 180.011 329.776 179.82 327.803L179.791 327.486L179.786 327.435C179.732 326.85 179.677 326.263 179.629 325.67C179.526 324.427 179.435 323.169 179.358 321.892Z" fill="#F27F71"/>
<path fill-rule="evenodd" clip-rule="evenodd" d="M416.549 186.982C418.665 186.388 420.404 185.85 420.838 185.58C425.925 182.414 430.219 177.187 432.497 171.255C434.698 165.53 435.249 159.176 432.577 153.556C429.372 158.167 424.288 161.299 419.654 161.665C414.493 162.072 409.532 159.548 407.04 152.246C404.103 143.639 409.823 136.785 418.368 135.068C421.639 134.411 425.383 134.608 429.098 135.936C428.87 133.718 428.32 131.548 427.513 129.46C425.386 123.955 421.605 118.988 417.114 115.148C415.965 114.222 415.785 112.539 416.709 111.39C417.633 110.242 419.318 110.061 420.467 110.986C425.95 115.142 430.638 120.693 433.489 126.945C435.386 131.105 436.429 135.577 436.372 140.198C438.745 142.228 440.94 144.88 442.799 148.241C447.456 156.661 447.53 166.49 444.655 175.521C441.83 184.409 435.902 192.374 428.725 197.449C427.827 198.088 424.345 199.674 420.307 201.219C420.798 203.617 421.251 206.115 421.67 208.727C429.483 257.389 429.178 302.848 414.81 348.693C410.735 361.615 398.751 370.406 385.204 370.406C385.201 370.409 385.201 370.409 385.201 370.409C373.171 370.409 362.475 362.739 358.62 351.339C353.984 337.638 348.549 321.571 348.549 321.571H216.846C216.846 321.571 210.063 340.757 205.002 355.08C201.754 364.267 193.069 370.409 183.325 370.409H183.323C171.195 370.409 160.667 362.049 157.92 350.236C154.794 336.788 151.255 321.571 151.255 321.571H111.634C107.035 321.571 102.723 318.882 101.094 314.582C96.0244 301.189 85.9288 266.73 102.067 226.511C103.253 223.56 106.32 221.795 109.503 221.795C120.058 221.786 143.375 221.786 143.375 221.786C143.375 221.786 146.901 168.087 195.529 139.77L182.302 114.524C182.302 114.524 204.42 105.811 224.001 130.996C270.666 120.015 311.818 118.835 364.223 134.383C376.49 138.001 387.585 144.79 396.393 154.063C402.523 160.504 407.354 166.958 411.186 174.278C413.247 178.217 415.018 182.408 416.549 186.982ZM427.387 147.075C425.831 145.972 424.171 145.33 422.534 145.125C418.856 144.665 414.944 146.065 415.899 149.512C416.72 152.486 418.691 153.48 420.804 152.825C423.407 152.018 425.985 149.867 427.387 147.075Z" fill="#FFC3BB"/>
<path fill-rule="evenodd" clip-rule="evenodd" d="M215.955 324.206L220.2 311.141C220.406 310.505 221.036 310.103 221.697 310.186C222.362 310.269 222.875 310.81 222.921 311.478L223.616 321.577H216.884L215.955 324.206ZM340.541 321.577L342.742 310.651C342.842 310.166 343.252 309.807 343.748 309.775C344.242 309.741 344.698 310.046 344.858 310.517C346.474 315.29 349.015 322.792 349.015 322.792L349.003 322.795L348.59 321.577H340.541ZM391.894 230.698C391.894 193.832 363.537 163.169 326.783 160.294C299.957 158.171 273.288 158.189 246.775 160.288C210.018 163.156 181.655 193.821 181.655 230.689C181.653 230.689 181.652 230.689 181.652 230.689C181.652 268.898 212.031 300.186 250.226 301.31C274.682 302.037 299.047 302.037 323.321 301.318C361.515 300.195 391.894 268.906 391.894 230.698ZM126.94 221.91C129.209 226.962 131.293 233.823 132.721 243.135C132.96 244.689 131.891 246.147 130.335 246.383C128.779 246.623 127.323 245.553 127.084 243.999C125.483 233.555 123.091 226.569 120.631 221.913L125.37 221.91H126.94ZM138.058 221.91C139.851 225.79 141.466 230.738 142.649 237.045C142.939 238.593 141.919 240.084 140.372 240.372C138.825 240.663 137.334 239.642 137.044 238.097C135.661 230.723 133.692 225.542 131.66 221.91H138.058ZM420.345 201.223C420.839 203.621 416.179 185.759 416.59 186.986C418.703 186.393 420.445 185.855 420.878 185.584C421.189 185.39 421.5 185.188 421.805 184.979C422.974 188.763 424.332 193.61 425.529 199.09C424.075 199.737 422.273 200.484 420.345 201.223ZM432.618 153.561C432.093 154.719 436.781 146.906 436.413 140.202C438.229 141.757 439.943 143.677 441.48 146.001C440.727 149.647 439.082 154.353 435.529 158.947C435.204 159.367 434.785 159.672 434.323 159.853C434.123 157.703 433.579 155.585 432.618 153.561ZM429.136 135.94C429.627 141.961 427.037 147.855 427.428 147.08C425.871 145.976 424.212 145.334 422.572 145.129C422.432 145.112 422.293 145.097 422.153 145.085C424.406 141.367 424.043 137.337 423.428 134.75C425.292 134.87 427.22 135.254 429.136 135.94ZM195.536 139.794L197.643 144.004C198.347 145.411 197.777 147.125 196.371 147.83C194.963 148.535 193.249 147.964 192.545 146.557L190.669 142.811C192.24 141.777 193.862 140.771 195.536 139.794ZM226.02 134.291C226.02 134.291 223.249 129.981 224.041 131C225.955 130.55 227.859 130.117 229.758 129.699L230.679 131.002C231.586 132.287 231.278 134.068 229.995 134.976C228.709 135.883 226.927 135.576 226.02 134.291Z" fill="#F27F71"/>
<path d="M107.964 321.702C116.383 321.702 123.208 299.364 123.208 271.808C123.208 244.253 116.383 221.915 107.964 221.915C99.5457 221.915 92.721 244.253 92.721 271.808C92.721 299.364 99.5457 321.702 107.964 321.702Z" fill="#F27F71"/>
<path fill-rule="evenodd" clip-rule="evenodd" d="M99.8054 249.562V294.069C99.8054 295.64 101.083 296.921 102.657 296.921C104.23 296.921 105.508 295.64 105.508 294.069V249.562C105.508 247.988 104.23 246.71 102.657 246.71C101.083 246.71 99.8054 247.988 99.8054 249.562Z" fill="#D7441E"/>
<path fill-rule="evenodd" clip-rule="evenodd" d="M110.408 249.562V294.069C110.408 295.64 111.686 296.921 113.26 296.921C114.833 296.921 116.111 295.64 116.111 294.069V249.562C116.111 247.988 114.833 246.71 113.26 246.71C111.686 246.71 110.408 247.988 110.408 249.562Z" fill="#D7441E"/>
<path fill-rule="evenodd" clip-rule="evenodd" d="M154.211 208.982C154.15 210.597 153.966 214.056 154.813 217.174C155.875 221.081 158.365 224.46 163.65 224.758C165.828 224.88 168.815 224.599 171.251 222.241C173.335 220.224 175.205 216.414 175.058 209.033L169.355 209.148C169.455 214.104 168.684 216.789 167.285 218.144C166.238 219.156 164.907 219.116 163.971 219.064C161.71 218.936 160.77 217.35 160.316 215.677C159.647 213.214 159.861 210.475 159.91 209.2L154.211 208.982Z" fill="black"/>
<path d="M349.14 138.685H236.026L238.884 151.253H351.998L349.14 138.685Z" fill="black"/>
<path fill-rule="evenodd" clip-rule="evenodd" d="M245.63 160.376C245.998 160.342 246.36 160.311 246.725 160.282C273.237 158.184 299.906 158.165 326.732 160.289C332.136 160.711 337.357 161.734 342.332 163.289V222.854H245.63V160.376Z" fill="#82B5B2"/>
<path fill-rule="evenodd" clip-rule="evenodd" d="M262.985 159.257C282.679 158.334 302.456 158.559 322.325 159.96C317.318 171.29 305.978 179.204 292.805 179.204C279.36 179.204 267.826 170.961 262.985 159.257Z" fill="#A8CFCC"/>
<path fill-rule="evenodd" clip-rule="evenodd" d="M276.535 222.862V195.084C276.535 191.771 279.221 189.084 282.532 189.084C285.845 189.084 288.531 191.771 288.531 195.084V222.862H276.535ZM296.569 222.862V202.167C296.569 198.856 299.258 196.167 302.569 196.167C305.879 196.167 308.568 198.856 308.568 202.167V222.862H296.569Z" fill="#A8CFCC"/>
<path d="M342.331 60.8992H245.63V144.432H342.331V60.8992Z" fill="#A8CFCC"/>
<path fill-rule="evenodd" clip-rule="evenodd" d="M260.655 144.426C261.947 127.803 275.861 114.698 292.813 114.698C309.764 114.698 323.679 127.803 324.971 144.426H260.655Z" fill="#82B5B2"/>
<path fill-rule="evenodd" clip-rule="evenodd" d="M312.039 60.8992V84.5681C312.039 87.8785 309.353 90.5665 306.042 90.5665C302.732 90.5665 300.043 87.8785 300.043 84.5681V60.8992H312.039ZM292.005 60.8992V77.4846C292.005 80.7954 289.316 83.4831 286.006 83.4831C282.695 83.4831 280.006 80.7954 280.006 77.4846V60.8992H292.005Z" fill="#82B5B2"/>
<path d="M245.761 252.564C262.586 252.564 276.226 239.061 276.226 222.405C276.226 205.749 262.586 192.246 245.761 192.246C228.935 192.246 215.296 205.749 215.296 222.405C215.296 239.061 228.935 252.564 245.761 252.564Z" fill="#FFCF84"/>
<path fill-rule="evenodd" clip-rule="evenodd" d="M245.74 198.888C258.854 198.888 269.502 209.429 269.502 222.412C269.502 235.395 258.854 245.936 245.74 245.936C245.207 245.936 244.774 246.364 244.774 246.891C244.774 247.419 245.207 247.847 245.74 247.847C259.919 247.847 271.433 236.45 271.433 222.412C271.433 208.374 259.919 196.977 245.74 196.977C245.207 196.977 244.774 197.405 244.774 197.932C244.774 198.46 245.207 198.888 245.74 198.888Z" fill="#FD9909"/>
<path fill-rule="evenodd" clip-rule="evenodd" d="M245.743 245.936C232.627 245.936 221.979 235.395 221.979 222.412C221.979 209.429 232.627 198.888 245.743 198.888C246.276 198.888 246.709 198.46 246.709 197.932C246.709 197.405 246.276 196.977 245.743 196.977C231.562 196.977 220.05 208.374 220.05 222.412C220.05 236.45 231.562 247.847 245.743 247.847C246.276 247.847 246.709 247.419 246.709 246.891C246.709 246.364 246.276 245.936 245.743 245.936Z" fill="#FD9909"/>
<path fill-rule="evenodd" clip-rule="evenodd" d="M249.438 252.345L248.815 247.376C248.749 246.853 249.126 246.376 249.655 246.31C250.184 246.245 250.664 246.617 250.732 247.141L251.348 252.057C250.718 252.172 250.081 252.269 249.438 252.345ZM255.135 251.108L253.409 246.066C253.239 245.567 253.51 245.024 254.015 244.855C254.519 244.685 255.067 244.953 255.237 245.453L256.953 250.462C256.357 250.696 255.751 250.911 255.135 251.108ZM228.976 247.563L231.66 243.196C231.936 242.745 232.53 242.602 232.986 242.876C233.441 243.15 233.586 243.738 233.31 244.188L230.619 248.568C230.059 248.25 229.511 247.914 228.976 247.563ZM270.837 239.539L266.403 236.291C265.976 235.977 265.885 235.378 266.202 234.954C266.518 234.53 267.123 234.441 267.551 234.755L271.887 237.931C271.555 238.479 271.203 239.015 270.837 239.539ZM216.817 231.803L222.027 229.482C222.512 229.266 223.085 229.48 223.303 229.961C223.521 230.442 223.305 231.008 222.819 231.225L217.479 233.604C217.24 233.013 217.018 232.413 216.817 231.803ZM275.333 215.088C275.487 215.704 275.624 216.327 275.74 216.956L270.603 218.155C270.086 218.277 269.565 217.958 269.443 217.445C269.319 216.932 269.642 216.417 270.159 216.296L275.333 215.088ZM220.597 205.42L225.187 208.392C225.633 208.681 225.759 209.274 225.467 209.715C225.176 210.156 224.577 210.28 224.131 209.992L219.56 207.031C219.888 206.483 220.236 205.945 220.597 205.42ZM223.593 201.733L227.326 204.451C227.755 204.764 227.847 205.362 227.531 205.787C227.216 206.212 226.61 206.303 226.181 205.991L222.311 203.171C222.722 202.679 223.151 202.199 223.593 201.733ZM263.38 197.796C263.905 198.165 264.418 198.55 264.918 198.951L261.581 203.117C261.248 203.53 260.64 203.599 260.223 203.272C259.806 202.944 259.737 202.342 260.067 201.929L263.38 197.796ZM258.21 194.868C258.799 195.13 259.378 195.41 259.945 195.706L257.592 200.075C257.341 200.54 256.756 200.717 256.285 200.469C255.816 200.22 255.639 199.641 255.89 199.176L258.21 194.868ZM238.939 193.007L240.298 197.803C240.441 198.311 240.142 198.839 239.628 198.981C239.115 199.124 238.582 198.827 238.439 198.319L237.072 193.494C237.686 193.312 238.308 193.15 238.939 193.007Z" fill="#FD9909"/>
<path d="M326.78 289.935C343.606 289.935 357.245 276.433 357.245 259.776C357.245 243.12 343.606 229.618 326.78 229.618C309.954 229.618 296.315 243.12 296.315 259.776C296.315 276.433 309.954 289.935 326.78 289.935Z" fill="#FFCF84"/>
<path fill-rule="evenodd" clip-rule="evenodd" d="M326.759 236.259C339.873 236.259 350.521 246.8 350.521 259.783C350.521 272.767 339.873 283.307 326.759 283.307C326.226 283.307 325.793 283.735 325.793 284.263C325.793 284.79 326.226 285.218 326.759 285.218C340.939 285.218 352.452 273.821 352.452 259.783C352.452 245.745 340.939 234.348 326.759 234.348C326.226 234.348 325.793 234.777 325.793 235.304C325.793 235.831 326.226 236.259 326.759 236.259Z" fill="#FD9909"/>
<path fill-rule="evenodd" clip-rule="evenodd" d="M326.762 283.307C313.646 283.307 302.998 272.767 302.998 259.783C302.998 246.8 313.646 236.259 326.762 236.259C327.295 236.259 327.728 235.831 327.728 235.304C327.728 234.777 327.295 234.348 326.762 234.348C312.581 234.348 301.069 245.745 301.069 259.783C301.069 273.821 312.581 285.218 326.762 285.218C327.295 285.218 327.728 284.79 327.728 284.263C327.728 283.735 327.295 283.307 326.762 283.307Z" fill="#FD9909"/>
<path fill-rule="evenodd" clip-rule="evenodd" d="M330.458 289.717L329.834 284.748C329.768 284.224 330.145 283.747 330.674 283.682C331.203 283.617 331.683 283.989 331.751 284.512L332.367 289.428C331.737 289.544 331.1 289.64 330.458 289.717ZM336.154 288.479L334.428 283.438C334.258 282.938 334.529 282.395 335.034 282.226C335.538 282.057 336.087 282.325 336.256 282.824L337.973 287.834C337.376 288.067 336.77 288.283 336.154 288.479ZM309.996 284.935L312.679 280.567C312.955 280.116 313.549 279.973 314.005 280.247C314.461 280.521 314.605 281.109 314.329 281.56L311.638 285.939C311.079 285.621 310.53 285.286 309.996 284.935ZM351.856 276.91L347.422 273.662C346.995 273.348 346.904 272.75 347.221 272.326C347.538 271.902 348.142 271.812 348.57 272.126L352.906 275.302C352.574 275.85 352.223 276.387 351.856 276.91ZM297.836 269.175L303.046 266.854C303.531 266.637 304.104 266.852 304.322 267.333C304.54 267.814 304.324 268.38 303.838 268.596L298.498 270.975C298.259 270.384 298.037 269.784 297.836 269.175ZM356.352 252.459C356.506 253.075 356.643 253.698 356.759 254.328L351.622 255.527C351.105 255.648 350.584 255.329 350.462 254.816C350.338 254.303 350.661 253.788 351.178 253.667L356.352 252.459ZM301.616 242.792L306.206 245.764C306.652 246.053 306.778 246.645 306.486 247.087C306.195 247.528 305.596 247.652 305.15 247.363L300.579 244.403C300.907 243.854 301.255 243.317 301.616 242.792ZM304.612 239.105L308.345 241.823C308.774 242.135 308.866 242.734 308.55 243.158C308.235 243.583 307.629 243.674 307.2 243.362L303.33 240.542C303.741 240.05 304.17 239.571 304.612 239.105ZM344.399 235.167C344.924 235.537 345.437 235.922 345.937 236.323L342.6 240.488C342.268 240.902 341.66 240.971 341.243 240.643C340.826 240.315 340.756 239.714 341.086 239.301L344.399 235.167ZM339.229 232.24C339.818 232.501 340.397 232.781 340.965 233.077L338.611 237.447C338.361 237.912 337.776 238.088 337.305 237.84C336.836 237.592 336.658 237.013 336.909 236.547L339.229 232.24ZM319.958 230.378L321.317 235.175C321.46 235.683 321.161 236.21 320.647 236.353C320.134 236.495 319.601 236.199 319.458 235.691L318.092 230.865C318.705 230.684 319.327 230.521 319.958 230.378Z" fill="#FD9909"/>
<path d="M179.862 60.738C196.687 60.738 210.327 47.2354 210.327 30.5791C210.327 13.9228 196.687 0.420227 179.862 0.420227C163.036 0.420227 149.396 13.9228 149.396 30.5791C149.396 47.2354 163.036 60.738 179.862 60.738Z" fill="#FFCF84"/>
<path fill-rule="evenodd" clip-rule="evenodd" d="M179.84 7.062C192.955 7.062 203.603 17.6027 203.603 30.5859C203.603 43.5692 192.955 54.1099 179.84 54.1099C179.308 54.1099 178.875 54.538 178.875 55.0653C178.875 55.5927 179.308 56.0208 179.84 56.0208C194.02 56.0208 205.533 44.6239 205.533 30.5859C205.533 16.548 194.02 5.15106 179.84 5.15106C179.308 5.15106 178.875 5.57916 178.875 6.10653C178.875 6.6339 179.308 7.062 179.84 7.062Z" fill="#FD9909"/>
<path fill-rule="evenodd" clip-rule="evenodd" d="M179.844 54.1099C166.728 54.1099 156.08 43.5692 156.08 30.5859C156.08 17.6027 166.728 7.062 179.844 7.062C180.377 7.062 180.809 6.6339 180.809 6.10653C180.809 5.57916 180.377 5.15106 179.844 5.15106C165.663 5.15106 154.151 16.548 154.151 30.5859C154.151 44.6239 165.663 56.0208 179.844 56.0208C180.377 56.0208 180.809 55.5927 180.809 55.0653C180.809 54.538 180.377 54.1099 179.844 54.1099Z" fill="#FD9909"/>
<path fill-rule="evenodd" clip-rule="evenodd" d="M183.539 60.5192L182.916 55.5505C182.85 55.0271 183.226 54.5496 183.755 54.4844C184.284 54.4194 184.765 54.7915 184.833 55.3149L185.448 60.2309C184.819 60.3465 184.182 60.4428 183.539 60.5192ZM189.236 59.2819L187.51 54.2402C187.34 53.7407 187.61 53.1978 188.116 53.0286C188.62 52.8593 189.168 53.1274 189.338 53.6268L191.054 58.6363C190.458 58.8699 189.851 59.0852 189.236 59.2819ZM163.077 55.7374L165.76 51.3696C166.036 50.9189 166.631 50.7756 167.087 51.0497C167.542 51.3237 167.687 51.9119 167.411 52.3625L164.72 56.742C164.16 56.4238 163.612 56.0885 163.077 55.7374ZM204.937 47.7131L200.503 44.4649C200.077 44.1511 199.986 43.5524 200.303 43.1284C200.619 42.7045 201.223 42.6151 201.652 42.9287L205.987 46.1051C205.655 46.6527 205.304 47.1891 204.937 47.7131ZM150.918 39.9774L156.128 37.6562C156.612 37.4396 157.186 37.6544 157.404 38.1352C157.622 38.6162 157.406 39.1822 156.919 39.3988L151.58 41.7781C151.341 41.187 151.119 40.5868 150.918 39.9774ZM209.433 23.2621C209.588 23.8778 209.725 24.5007 209.841 25.1304L204.704 26.3295C204.186 26.4507 203.665 26.1321 203.544 25.619C203.42 25.1058 203.742 24.5908 204.26 24.4696L209.433 23.2621ZM154.697 13.5942L159.288 16.5665C159.734 16.8552 159.859 17.4478 159.568 17.8892C159.276 18.3305 158.678 18.4545 158.232 18.1657L153.661 15.2055C153.989 14.6566 154.336 14.1193 154.697 13.5942ZM157.693 9.90754L161.427 12.6253C161.855 12.9377 161.948 13.5364 161.631 13.9611C161.317 14.3859 160.711 14.477 160.282 14.1646L156.412 11.3452C156.823 10.8527 157.251 10.3732 157.693 9.90754ZM197.48 5.97001C198.005 6.33921 198.519 6.72427 199.019 7.12538L195.681 11.2911C195.349 11.7042 194.741 11.7734 194.324 11.4457C193.907 11.1179 193.838 10.5164 194.168 10.1032L197.48 5.97001ZM192.311 3.04243C192.9 3.30404 193.479 3.58381 194.046 3.87981L191.693 8.24921C191.442 8.71453 190.857 8.89072 190.386 8.64268C189.917 8.39445 189.74 7.81524 189.99 7.34992L192.311 3.04243ZM173.04 1.18097L174.399 5.97747C174.542 6.48521 174.242 7.01301 173.729 7.15538C173.216 7.29794 172.683 7.00136 172.54 6.49343L171.173 1.66769C171.787 1.48653 172.409 1.3241 173.04 1.18097Z" fill="#FD9909"/>
<path d="M76.9713 171.664C93.7968 171.664 107.437 158.161 107.437 141.505C107.437 124.849 93.7968 111.346 76.9713 111.346C60.1457 111.346 46.5059 124.849 46.5059 141.505C46.5059 158.161 60.1457 171.664 76.9713 171.664Z" fill="#FFCF84"/>
<path fill-rule="evenodd" clip-rule="evenodd" d="M76.9499 117.988C90.0644 117.988 100.713 128.528 100.713 141.512C100.713 154.495 90.0644 165.036 76.9499 165.036C76.4172 165.036 75.9847 165.464 75.9847 165.991C75.9847 166.518 76.4172 166.947 76.9499 166.947C91.1299 166.947 102.643 155.55 102.643 141.512C102.643 127.474 91.1299 116.077 76.9499 116.077C76.4172 116.077 75.9847 116.505 75.9847 117.032C75.9847 117.56 76.4172 117.988 76.9499 117.988Z" fill="#FD9909"/>
<path fill-rule="evenodd" clip-rule="evenodd" d="M76.9537 165.036C63.8376 165.036 53.1894 154.495 53.1894 141.512C53.1894 128.528 63.8376 117.988 76.9537 117.988C77.4865 117.988 77.9189 117.56 77.9189 117.032C77.9189 116.505 77.4865 116.077 76.9537 116.077C62.7722 116.077 51.2606 127.474 51.2606 141.512C51.2606 155.55 62.7722 166.947 76.9537 166.947C77.4865 166.947 77.9189 166.518 77.9189 165.991C77.9189 165.464 77.4865 165.036 76.9537 165.036Z" fill="#FD9909"/>
<path fill-rule="evenodd" clip-rule="evenodd" d="M80.6488 171.445L80.0253 166.476C79.9597 165.953 80.3361 165.475 80.865 165.41C81.3939 165.345 81.8746 165.717 81.9421 166.241L82.5579 171.157C81.9286 171.272 81.2916 171.369 80.6488 171.445ZM86.3453 170.208L84.6196 165.166C84.4497 164.666 84.72 164.124 85.2257 163.954C85.7295 163.785 86.2778 164.053 86.4477 164.553L88.1638 169.562C87.5673 169.796 86.9611 170.011 86.3453 170.208ZM60.1868 166.663L62.8701 162.295C63.1461 161.845 63.7407 161.701 64.1962 161.975C64.6518 162.249 64.7966 162.838 64.5205 163.288L61.8296 167.668C61.2698 167.35 60.7215 167.014 60.1868 166.663ZM102.047 158.639L97.6129 155.391C97.1863 155.077 97.0956 154.478 97.4122 154.054C97.7287 153.63 98.333 153.541 98.7615 153.854L103.097 157.031C102.765 157.579 102.414 158.115 102.047 158.639ZM48.0274 150.903L53.2375 148.582C53.722 148.365 54.2953 148.58 54.5135 149.061C54.7316 149.542 54.5154 150.108 54.0289 150.325L48.6895 152.704C48.4502 152.113 48.2282 151.513 48.0274 150.903ZM106.543 134.188C106.697 134.804 106.834 135.427 106.95 136.056L101.813 137.255C101.296 137.376 100.775 137.058 100.653 136.545C100.53 136.032 100.852 135.517 101.369 135.395L106.543 134.188ZM51.8071 124.52L56.3975 127.492C56.8434 127.781 56.9689 128.374 56.6774 128.815C56.3859 129.256 55.7875 129.38 55.3416 129.091L50.7705 126.131C51.0986 125.582 51.4461 125.045 51.8071 124.52ZM54.803 120.833L58.5364 123.551C58.9649 123.863 59.0576 124.462 58.741 124.887C58.4263 125.312 57.8202 125.403 57.3917 125.09L53.5212 122.271C53.9324 121.778 54.361 121.299 54.803 120.833ZM94.59 116.896C95.115 117.265 95.6285 117.65 96.1285 118.051L92.7909 122.217C92.4588 122.63 91.8508 122.699 91.4338 122.371C91.0168 122.044 90.9474 121.442 91.2775 121.029L94.59 116.896ZM89.4204 113.968C90.0092 114.23 90.5883 114.51 91.1558 114.806L88.8027 119.175C88.5518 119.64 87.9668 119.816 87.4958 119.568C87.0267 119.32 86.8492 118.741 87.1001 118.276L89.4204 113.968ZM70.1495 112.107L71.5085 116.903C71.6513 117.411 71.3521 117.939 70.8386 118.081C70.3252 118.224 69.7924 117.927 69.6495 117.419L68.2828 112.593C68.8967 112.412 69.5183 112.25 70.1495 112.107Z" fill="#FD9909"/>
<path d="M493.24 130.893C510.065 130.893 523.705 117.39 523.705 100.734C523.705 84.0775 510.065 70.5749 493.24 70.5749C476.414 70.5749 462.775 84.0775 462.775 100.734C462.775 117.39 476.414 130.893 493.24 130.893Z" fill="#FFCF84"/>
<path fill-rule="evenodd" clip-rule="evenodd" d="M493.218 77.2167C506.333 77.2167 516.981 87.7574 516.981 100.741C516.981 113.724 506.333 124.265 493.218 124.265C492.686 124.265 492.253 124.693 492.253 125.22C492.253 125.747 492.686 126.176 493.218 126.176C507.398 126.176 518.912 114.779 518.912 100.741C518.912 86.7027 507.398 75.3058 493.218 75.3058C492.686 75.3058 492.253 75.7339 492.253 76.2612C492.253 76.7886 492.686 77.2167 493.218 77.2167Z" fill="#FD9909"/>
<path fill-rule="evenodd" clip-rule="evenodd" d="M493.222 124.265C480.106 124.265 469.458 113.724 469.458 100.741C469.458 87.7574 480.106 77.2167 493.222 77.2167C493.755 77.2167 494.188 76.7886 494.188 76.2612C494.188 75.7339 493.755 75.3058 493.222 75.3058C479.041 75.3058 467.529 86.7027 467.529 100.741C467.529 114.779 479.041 126.176 493.222 126.176C493.755 126.176 494.188 125.747 494.188 125.22C494.188 124.693 493.755 124.265 493.222 124.265Z" fill="#FD9909"/>
<path fill-rule="evenodd" clip-rule="evenodd" d="M496.917 130.674L496.294 125.705C496.228 125.182 496.605 124.704 497.134 124.639C497.663 124.574 498.143 124.946 498.211 125.47L498.827 130.386C498.197 130.501 497.56 130.597 496.917 130.674ZM502.614 129.437L500.888 124.395C500.718 123.895 500.989 123.352 501.494 123.183C501.998 123.014 502.546 123.282 502.716 123.781L504.432 128.791C503.836 129.025 503.23 129.24 502.614 129.437ZM476.455 125.892L479.139 121.524C479.415 121.074 480.009 120.93 480.465 121.204C480.92 121.478 481.065 122.067 480.789 122.517L478.098 126.897C477.538 126.579 476.99 126.243 476.455 125.892ZM518.316 117.868L513.882 114.62C513.455 114.306 513.364 113.707 513.681 113.283C513.997 112.859 514.602 112.77 515.03 113.083L519.366 116.26C519.034 116.807 518.682 117.344 518.316 117.868ZM464.296 110.132L469.506 107.811C469.991 107.594 470.564 107.809 470.782 108.29C471 108.771 470.784 109.337 470.298 109.553L464.958 111.933C464.719 111.342 464.497 110.741 464.296 110.132ZM522.812 93.4167C522.966 94.0325 523.103 94.6554 523.219 95.2851L518.082 96.4842C517.565 96.6054 517.044 96.2868 516.922 95.7737C516.798 95.2604 517.121 94.7454 517.638 94.6243L522.812 93.4167ZM468.076 83.7488L472.666 86.7211C473.112 87.0099 473.238 87.6025 472.946 88.0439C472.655 88.4851 472.056 88.6092 471.61 88.3204L467.039 85.3601C467.367 84.8113 467.715 84.274 468.076 83.7488ZM471.072 80.0622L474.805 82.78C475.234 83.0924 475.326 83.6911 475.01 84.1157C474.695 84.5405 474.089 84.6317 473.66 84.3193L469.79 81.4998C470.201 81.0074 470.63 80.5279 471.072 80.0622ZM510.859 76.1247C511.384 76.4939 511.897 76.8789 512.397 77.28L509.06 81.4457C508.728 81.8589 508.119 81.9281 507.702 81.6003C507.286 81.2726 507.216 80.671 507.546 80.2579L510.859 76.1247ZM505.689 73.1971C506.278 73.4587 506.857 73.7385 507.424 74.0345L505.071 78.4039C504.82 78.8692 504.236 79.0454 503.764 78.7974C503.295 78.5491 503.118 77.9699 503.369 77.5046L505.689 73.1971ZM486.418 71.3356L487.777 76.1321C487.92 76.6399 487.621 77.1677 487.107 77.31C486.594 77.4526 486.061 77.156 485.918 76.6481L484.551 71.8224C485.165 71.6412 485.787 71.4788 486.418 71.3356Z" fill="#FD9909"/>
<path fill-rule="evenodd" clip-rule="evenodd" d="M384.564 63.9914V59.2344C384.564 58.4474 385.203 57.8087 385.99 57.8087C386.777 57.8087 387.416 58.4474 387.416 59.2344V63.9914H392.172C392.959 63.9914 393.598 64.6301 393.598 65.4171C393.598 66.2038 392.959 66.8428 392.172 66.8428H387.416V71.5998C387.416 72.3865 386.777 73.0255 385.99 73.0255C385.203 73.0255 384.564 72.3865 384.564 71.5998V66.8428H379.805C379.018 66.8428 378.38 66.2038 378.38 65.4171C378.38 64.6301 379.018 63.9914 379.805 63.9914H384.564Z" fill="#FD9500"/>
<path fill-rule="evenodd" clip-rule="evenodd" d="M152.015 117.957V113.2C152.015 112.413 152.654 111.774 153.441 111.774C154.228 111.774 154.866 112.413 154.866 113.2V117.957H159.622C160.409 117.957 161.048 118.595 161.048 119.382C161.048 120.169 160.409 120.808 159.622 120.808H154.866V125.565C154.866 126.352 154.228 126.991 153.441 126.991C152.654 126.991 152.015 126.352 152.015 125.565V120.808H147.256C146.469 120.808 145.83 120.169 145.83 119.382C145.83 118.595 146.469 117.957 147.256 117.957H152.015Z" fill="#FD9500"/>
<path fill-rule="evenodd" clip-rule="evenodd" d="M477.66 166.715V161.958C477.66 161.171 478.299 160.533 479.086 160.533C479.873 160.533 480.512 161.171 480.512 161.958V166.715H485.268C486.055 166.715 486.693 167.354 486.693 168.141C486.693 168.928 486.055 169.567 485.268 169.567H480.512V174.324C480.512 175.11 479.873 175.749 479.086 175.749C478.299 175.749 477.66 175.11 477.66 174.324V169.567H472.901C472.114 169.567 471.476 168.928 471.476 168.141C471.476 167.354 472.114 166.715 472.901 166.715H477.66Z" fill="#FD9500"/>
</svg>
